<?xml version="1.0" encoding="UTF-8"?>
<svg width="105px" height="71px" viewBox="0 0 105 71" version="1.1" xmlns="http://www.w3.org/2000/svg" xmlns:xlink="http://www.w3.org/1999/xlink">
    <!-- Generator: Sketch 48.2 (47327) - http://www.bohemiancoding.com/sketch -->
    <title>ilu_ok</title>
    <desc>Created with Sketch.</desc>
    <defs></defs>
    <g id="02---Formulario-ROPO-Mob-Exito" stroke="none" stroke-width="1" fill="none" fill-rule="evenodd" transform="translate(-125.000000, -84.000000)">
        <g id="ilu_ok" transform="translate(124.000000, 83.000000)">
            <g id="Group-24" transform="translate(0.362271, 0.418834)">
                <path d="M71.873238,36.1135374 C71.873238,55.6925818 56.0013096,71.5645103 36.4222652,71.5645103 C16.8432208,71.5645103 0.971292302,55.6925818 0.971292302,36.1135374 C0.971292302,16.534493 16.8432208,0.662564556 36.4222652,0.662564556 C56.0013096,0.662564556 71.873238,16.534493 71.873238,36.1135374" id="circle" fill="#48AE64"></path>
                <path d="M81.9306582,44.115681 L34.4800338,44.115681 L31.552738,47.1686676 L81.9306582,47.1686676 C82.6690924,47.1686676 83.220523,46.5298665 83.220523,45.7416158 L83.220523,45.637001 C83.220523,44.8487503 82.6690924,44.115681 81.9306582,44.115681 M96.3036457,37.5398612 L40.7854264,37.5398612 L38.0834547,40.3579438 L96.3036457,40.3579438 C97.0420799,40.3579438 97.5463764,39.7662767 97.5463764,38.9784092 L97.5463764,38.8726449 C97.5463764,38.0843941 97.0420799,37.5398612 96.3036457,37.5398612 M103.489833,30.7291757 C104.228267,30.7291757 104.826832,31.3212259 104.826832,32.1098598 L104.826832,32.2140913 C104.826832,33.0023421 104.228267,33.5472582 103.489833,33.5472582 L44.6135966,33.5472582 L47.3159515,30.7291757 L103.489833,30.7291757 Z M103.887445,39.1876769 C103.887445,39.9636651 103.297694,40.5928862 102.570373,40.5928862 L101.446819,40.5928862 C100.719498,40.5928862 100.129746,39.9636651 100.129746,39.1876769 L100.129746,38.9451088 C100.129746,38.1691206 100.719498,37.5398995 101.446819,37.5398995 L102.570373,37.5398995 C103.297694,37.5398995 103.887445,38.1691206 103.887445,38.9451088 L103.887445,39.1876769 Z" id="lineas" fill="#D8BE75"></path>
                <polygon id="tick_sombra" fill-opacity="0.5" fill="#277A3E" points="30.6453109 44.8505131 20.8831877 35.0761274 16.6016489 39.4937037 30.7104555 53.6201377 60.8992704 22.9588322 56.5525869 18.6071671"></polygon>
                <polygon id="tick" fill="#FFFFFF" points="28.1292314 42.3345869 18.3671083 32.559818 14.0855695 36.9777775 28.1943761 51.1038283 58.383191 20.442906 54.0365075 16.0908577"></polygon>
            </g>
        </g>
    </g>
</svg>