<?xml version="1.0" encoding="UTF-8"?>
<svg width="104px" height="72px" viewBox="0 0 104 72" version="1.1" xmlns="http://www.w3.org/2000/svg" xmlns:xlink="http://www.w3.org/1999/xlink">
    <!-- Generator: Sketch 48.2 (47327) - http://www.bohemiancoding.com/sketch -->
    <title>ilu_ko</title>
    <desc>Created with Sketch.</desc>
    <defs></defs>
    <g id="03---Formulario-ROPO-Mob-Fallo" stroke="none" stroke-width="1" fill="none" fill-rule="evenodd" transform="translate(-125.000000, -84.000000)">
        <g id="ilu_ko" transform="translate(125.000000, 84.000000)" fill-rule="nonzero">
            <path d="M71.603386,36.0222672 C71.603386,55.6984963 55.6520849,71.6497975 35.9758557,71.6497975 C16.2992598,71.6497975 0.348325359,55.6984963 0.348325359,36.0222672 C0.348325359,16.3456713 16.2992598,0.394736842 35.9758557,0.394736842 C55.6520849,0.394736842 71.603386,16.3456713 71.603386,36.0222672" id="circle" fill="#F35E61"></path>
            <path d="M100.11051,37.5785 L98.1895622,38.2011579 L100.11051,38.8255526 L100.728536,40.7658947 L101.345983,38.8255526 L103.266931,38.2011579 L101.345983,37.5785 L100.728536,35.6384474 L100.11051,37.5785 Z M80.4925885,48.9336842 L81.400378,46.0823684 L82.3081675,48.9336842 L85.1314043,49.8492895 L82.3081675,50.7663421 L81.400378,53.6182368 L80.4925885,50.7663421 L77.6693517,49.8492895 L80.4925885,48.9336842 Z M93.5730278,40.9742443 C93.5730278,41.6504665 93.0643669,42.1984008 92.4372008,42.1984008 L91.4676863,42.1984008 C90.8405204,42.1984008 90.3318595,41.6504665 90.3318595,40.9742443 L90.3318595,40.7628865 C90.3318595,40.0866643 90.8405204,39.5385254 91.4676863,39.5385254 L92.4372008,39.5385254 C93.0643669,39.5385254 93.5730278,40.0866643 93.5730278,40.7628865 L93.5730278,40.9742443 Z" id="stars" fill="#FCDFDF"></path>
            <path d="M91.4486343,33.605039 L42.9953986,33.605039 L40.6645935,36.0603086 L91.4486343,36.0603086 C92.0857265,36.0603086 92.6018824,35.5854186 92.6018824,34.8987615 L92.6018824,34.8079165 C92.6018824,34.1208502 92.0857265,33.605039 91.4486343,33.605039 Z M40.9252647,39.5386072 L38.5944596,41.9938768 L85.2501635,41.9938768 C85.8870531,41.9938768 86.3221798,41.4782702 86.3221798,40.7918178 L86.3221798,40.6997452 C86.3221798,40.0130881 85.8870531,39.5386072 85.2501635,39.5386072 L40.9252647,39.5386072 Z M49.7375561,45.2675696 L47.2124836,47.9274451 L72.8526549,47.9274451 C73.4895442,47.9274451 73.9651856,47.3707127 73.9651856,46.6842602 L73.9651856,46.5932106 C73.9651856,45.9061444 73.4895442,45.2675696 72.8526549,45.2675696 L49.7375561,45.2675696 Z" id="lineas" fill="#F79698"></path>
            <polygon id="Shape" fill="#FFFFFF" points="55.0021148 50.9023947 50.8559833 55.0485263 36.3440885 40.5369211 21.8321938 55.0485263 17.2715359 50.4878684 31.7831411 35.9756842 17.6860622 21.8786053 21.8321938 17.7324737 35.9292727 31.8295526 50.4414569 17.3179474 55.0021148 21.8786053 40.4902201 36.3905"></polygon>
        </g>
    </g>
</svg>