<?xml version="1.0" encoding="UTF-8" standalone="no"?><svg xmlns="http://www.w3.org/2000/svg" xmlns:xlink="http://www.w3.org/1999/xlink" contentScriptType="application/ecmascript" contentStyleType="text/css" height="296px" preserveAspectRatio="none" style="width:302px;height:296px;" version="1.1" viewBox="0 0 302 296" width="302px" zoomAndPan="magnify"><defs><filter height="300%" id="fuojef8ekkfqp" width="300%" x="-1" y="-1"><feGaussianBlur result="blurOut" stdDeviation="2.0"/><feColorMatrix in="blurOut" result="blurOut2" type="matrix" values="0 0 0 0 0 0 0 0 0 0 0 0 0 0 0 0 0 0 .4 0"/><feOffset dx="4.0" dy="4.0" in="blurOut2" result="blurOut3"/><feBlend in="SourceGraphic" in2="blurOut3" mode="normal"/></filter></defs><g><!--cluster Entorno base--><polygon fill="#DDAAAA" filter="url(#fuojef8ekkfqp)" points="14,16,125,16,132,38.2969,280,38.2969,280,284,14,284,14,16" style="stroke: #000000; stroke-width: 1.5;"/><line style="stroke: #000000; stroke-width: 1.5;" x1="14" x2="132" y1="38.2969" y2="38.2969"/><text fill="#000000" font-family="sans-serif" font-size="14" font-weight="bold" lengthAdjust="spacingAndGlyphs" textLength="105" x="18" y="30.9951">Entorno base</text><!--class Python 3.6--><rect fill="#FEFECE" filter="url(#fuojef8ekkfqp)" height="99.2188" id="Python 3.6" style="stroke: #A80036; stroke-width: 1.5;" width="115" x="89.5" y="43"/><ellipse cx="111.7" cy="59" fill="#EB937F" rx="11" ry="11" style="stroke: #A80036; stroke-width: 1.0;"/><path d="M115.8094,65 L108.0906,65 L108.0906,52.6094 L115.8094,52.6094 L115.8094,54.7656 L110.5438,54.7656 L110.5438,57.4375 L115.3094,57.4375 L115.3094,59.5938 L110.5438,59.5938 L110.5438,62.8438 L115.8094,62.8438 L115.8094,65 Z "/><text fill="#000000" font-family="sans-serif" font-size="12" lengthAdjust="spacingAndGlyphs" textLength="67" x="127.3" y="63.1543">Python 3.6</text><line style="stroke: #A80036; stroke-width: 1.5;" x1="90.5" x2="203.5" y1="75" y2="75"/><text fill="#000000" font-family="sans-serif" font-size="11" lengthAdjust="spacingAndGlyphs" textLength="77" x="95.5" y="89.2104">django 1.8.19</text><text fill="#000000" font-family="sans-serif" font-size="11" lengthAdjust="spacingAndGlyphs" textLength="81" x="95.5" y="102.0151">pandas 0.21.1</text><text fill="#000000" font-family="sans-serif" font-size="11" lengthAdjust="spacingAndGlyphs" textLength="103" x="95.5" y="114.8198">sqlalchemy 1.0.12</text><text fill="#000000" font-family="sans-serif" font-size="11" lengthAdjust="spacingAndGlyphs" textLength="79" x="95.5" y="127.6245">wagtail 1.10.1</text><line style="stroke: #A80036; stroke-width: 1.5;" x1="90.5" x2="203.5" y1="134.2188" y2="134.2188"/><!--class Proyecto 1--><rect fill="#FEFECE" filter="url(#fuojef8ekkfqp)" height="73.6094" id="Proyecto 1" style="stroke: #A80036; stroke-width: 1.5;" width="99" x="22.5" y="202"/><ellipse cx="37.5" cy="218" fill="#ADD1B2" rx="11" ry="11" style="stroke: #A80036; stroke-width: 1.0;"/><path d="M40.4688,223.6406 Q39.8906,223.9375 39.25,224.0781 Q38.6094,224.2344 37.9063,224.2344 Q35.4063,224.2344 34.0781,222.5938 Q32.7656,220.9375 32.7656,217.8125 Q32.7656,214.6875 34.0781,213.0313 Q35.4063,211.375 37.9063,211.375 Q38.6094,211.375 39.25,211.5313 Q39.9063,211.6875 40.4688,211.9844 L40.4688,214.7031 Q39.8438,214.125 39.25,213.8594 Q38.6563,213.5781 38.0313,213.5781 Q36.6875,213.5781 36,214.6563 Q35.3125,215.7188 35.3125,217.8125 Q35.3125,219.9063 36,220.9844 Q36.6875,222.0469 38.0313,222.0469 Q38.6563,222.0469 39.25,221.7813 Q39.8438,221.5 40.4688,220.9219 L40.4688,223.6406 Z "/><text fill="#000000" font-family="sans-serif" font-size="12" lengthAdjust="spacingAndGlyphs" textLength="67" x="51.5" y="222.1543">Proyecto 1</text><line style="stroke: #A80036; stroke-width: 1.5;" x1="23.5" x2="120.5" y1="234" y2="234"/><text fill="#000000" font-family="sans-serif" font-size="11" lengthAdjust="spacingAndGlyphs" textLength="79" x="28.5" y="248.2104">wagtail 1.10.1</text><text fill="#000000" font-family="sans-serif" font-size="11" lengthAdjust="spacingAndGlyphs" textLength="77" x="28.5" y="261.0151">django 1.8.19</text><line style="stroke: #A80036; stroke-width: 1.5;" x1="23.5" x2="120.5" y1="267.6094" y2="267.6094"/><!--class Proyecto 2--><rect fill="#FEFECE" filter="url(#fuojef8ekkfqp)" height="73.6094" id="Proyecto 2" style="stroke: #A80036; stroke-width: 1.5;" width="115" x="156.5" y="202"/><ellipse cx="178.7" cy="218" fill="#ADD1B2" rx="11" ry="11" style="stroke: #A80036; stroke-width: 1.0;"/><path d="M181.6688,223.6406 Q181.0906,223.9375 180.45,224.0781 Q179.8094,224.2344 179.1063,224.2344 Q176.6063,224.2344 175.2781,222.5938 Q173.9656,220.9375 173.9656,217.8125 Q173.9656,214.6875 175.2781,213.0313 Q176.6063,211.375 179.1063,211.375 Q179.8094,211.375 180.45,211.5313 Q181.1063,211.6875 181.6688,211.9844 L181.6688,214.7031 Q181.0438,214.125 180.45,213.8594 Q179.8563,213.5781 179.2313,213.5781 Q177.8875,213.5781 177.2,214.6563 Q176.5125,215.7188 176.5125,217.8125 Q176.5125,219.9063 177.2,220.9844 Q177.8875,222.0469 179.2313,222.0469 Q179.8563,222.0469 180.45,221.7813 Q181.0438,221.5 181.6688,220.9219 L181.6688,223.6406 Z "/><text fill="#000000" font-family="sans-serif" font-size="12" lengthAdjust="spacingAndGlyphs" textLength="67" x="194.3" y="222.1543">Proyecto 2</text><line style="stroke: #A80036; stroke-width: 1.5;" x1="157.5" x2="270.5" y1="234" y2="234"/><text fill="#000000" font-family="sans-serif" font-size="11" lengthAdjust="spacingAndGlyphs" textLength="81" x="162.5" y="248.2104">pandas 0.21.1</text><text fill="#000000" font-family="sans-serif" font-size="11" lengthAdjust="spacingAndGlyphs" textLength="103" x="162.5" y="261.0151">sqlalchemy 1.0.12</text><line style="stroke: #A80036; stroke-width: 1.5;" x1="157.5" x2="270.5" y1="267.6094" y2="267.6094"/><!--link Python 3.6 to Proyecto 1--><path d="M121.6084,142.0982 C111.5793,161.6884 100.2558,183.807 90.962,201.9609 " fill="none" id="Python 3.6-Proyecto 1" style="stroke: #A80036; stroke-width: 1.0;"/><!--link Python 3.6 to Proyecto 2--><path d="M169.6831,142.0982 C178.6425,161.6884 188.7581,183.807 197.0606,201.9609 " fill="none" id="Python 3.6-Proyecto 2" style="stroke: #A80036; stroke-width: 1.0;"/><!--
@startuml
set namespaceSeparator none
package "Entorno base" #DDAAAA {
  "Python 3.6" - - "Proyecto 1"
  "Python 3.6" - - "Proyecto 2"
}

enum "Python 3.6" {
    django 1.8.19
    pandas 0.21.1
    sqlalchemy 1.0.12   
    wagtail 1.10.1
}

class "Proyecto 1" {
    wagtail 1.10.1
    django 1.8.19
}

class "Proyecto 2" {
    pandas 0.21.1
    sqlalchemy 1.0.12
}


@enduml

PlantUML version 1.2019.03(Sun Mar 10 12:04:44 CET 2019)
(GPL source distribution)
Java Runtime: OpenJDK Runtime Environment
JVM: OpenJDK 64-Bit Server VM
Java Version: 10.0.2+13
Operating System: Linux
OS Version: 5.0.4-arch1-1-ARCH
Default Encoding: UTF-8
Language: en
Country: US
--></g></svg>