<?xml version="1.0" encoding="UTF-8" standalone="no"?><svg xmlns="http://www.w3.org/2000/svg" xmlns:xlink="http://www.w3.org/1999/xlink" contentScriptType="application/ecmascript" contentStyleType="text/css" height="283px" preserveAspectRatio="none" style="width:749px;height:283px;" version="1.1" viewBox="0 0 749 283" width="749px" zoomAndPan="magnify"><defs><filter height="300%" id="fp88vv8h505fi" width="300%" x="-1" y="-1"><feGaussianBlur result="blurOut" stdDeviation="2.0"/><feColorMatrix in="blurOut" result="blurOut2" type="matrix" values="0 0 0 0 0 0 0 0 0 0 0 0 0 0 0 0 0 0 .4 0"/><feOffset dx="4.0" dy="4.0" in="blurOut2" result="blurOut3"/><feBlend in="SourceGraphic" in2="blurOut3" mode="normal"/></filter></defs><g><!--cluster Entorno base--><polygon fill="#DDAAAA" filter="url(#fp88vv8h505fi)" points="14,28.5,125,28.5,132,50.7969,178,50.7969,178,124.5,14,124.5,14,28.5" style="stroke: #000000; stroke-width: 1.5;"/><line style="stroke: #000000; stroke-width: 1.5;" x1="14" x2="132" y1="50.7969" y2="50.7969"/><text fill="#000000" font-family="sans-serif" font-size="14" font-weight="bold" lengthAdjust="spacingAndGlyphs" textLength="105" x="18" y="43.4951">Entorno base</text><!--cluster entorno-01--><polygon fill="#EEBBAA" filter="url(#fp88vv8h505fi)" points="197,16,292,16,299,38.2969,361,38.2969,361,271,197,271,197,16" style="stroke: #000000; stroke-width: 1.5;"/><line style="stroke: #000000; stroke-width: 1.5;" x1="197" x2="299" y1="38.2969" y2="38.2969"/><text fill="#000000" font-family="sans-serif" font-size="14" font-weight="bold" lengthAdjust="spacingAndGlyphs" textLength="89" x="201" y="30.9951">entorno-01</text><!--cluster entorno-02--><polygon fill="#EEAABB" filter="url(#fp88vv8h505fi)" points="380,16,475,16,482,38.2969,544,38.2969,544,271,380,271,380,16" style="stroke: #000000; stroke-width: 1.5;"/><line style="stroke: #000000; stroke-width: 1.5;" x1="380" x2="482" y1="38.2969" y2="38.2969"/><text fill="#000000" font-family="sans-serif" font-size="14" font-weight="bold" lengthAdjust="spacingAndGlyphs" textLength="89" x="384" y="30.9951">entorno-02</text><!--cluster entorno-03--><polygon fill="#DD66AA" filter="url(#fp88vv8h505fi)" points="563,16,658,16,665,38.2969,727,38.2969,727,271,563,271,563,16" style="stroke: #000000; stroke-width: 1.5;"/><line style="stroke: #000000; stroke-width: 1.5;" x1="563" x2="665" y1="38.2969" y2="38.2969"/><text fill="#000000" font-family="sans-serif" font-size="14" font-weight="bold" lengthAdjust="spacingAndGlyphs" textLength="89" x="567" y="30.9951">entorno-03</text><!--class Python 3.6--><rect fill="#FEFECE" filter="url(#fp88vv8h505fi)" height="60.8047" id="Python 3.6" style="stroke: #A80036; stroke-width: 1.5;" width="148" x="22" y="55.5"/><ellipse cx="59.05" cy="71.5" fill="#EB937F" rx="11" ry="11" style="stroke: #A80036; stroke-width: 1.0;"/><path d="M63.1594,77.5 L55.4406,77.5 L55.4406,65.1094 L63.1594,65.1094 L63.1594,67.2656 L57.8938,67.2656 L57.8938,69.9375 L62.6594,69.9375 L62.6594,72.0938 L57.8938,72.0938 L57.8938,75.3438 L63.1594,75.3438 L63.1594,77.5 Z "/><text fill="#000000" font-family="sans-serif" font-size="12" lengthAdjust="spacingAndGlyphs" textLength="67" x="77.95" y="75.6543">Python 3.6</text><line style="stroke: #A80036; stroke-width: 1.5;" x1="23" x2="169" y1="87.5" y2="87.5"/><text fill="#000000" font-family="sans-serif" font-size="11" lengthAdjust="spacingAndGlyphs" textLength="136" x="28" y="101.7104">[librerías preinstaladas]</text><line style="stroke: #A80036; stroke-width: 1.5;" x1="23" x2="169" y1="108.3047" y2="108.3047"/><!--class Python 3.6.7--><rect fill="#FEFECE" filter="url(#fp88vv8h505fi)" height="86.4141" id="Python 3.6.7" style="stroke: #A80036; stroke-width: 1.5;" width="148" x="205" y="43"/><ellipse cx="236.65" cy="59" fill="#EB937F" rx="11" ry="11" style="stroke: #A80036; stroke-width: 1.0;"/><path d="M240.7594,65 L233.0406,65 L233.0406,52.6094 L240.7594,52.6094 L240.7594,54.7656 L235.4938,54.7656 L235.4938,57.4375 L240.2594,57.4375 L240.2594,59.5938 L235.4938,59.5938 L235.4938,62.8438 L240.7594,62.8438 L240.7594,65 Z "/><text fill="#000000" font-family="sans-serif" font-size="12" lengthAdjust="spacingAndGlyphs" textLength="79" x="254.35" y="63.1543">Python 3.6.7</text><line style="stroke: #A80036; stroke-width: 1.5;" x1="206" x2="352" y1="75" y2="75"/><text fill="#000000" font-family="sans-serif" font-size="11" lengthAdjust="spacingAndGlyphs" textLength="136" x="211" y="89.2104">[librerias preinstaladas]</text><text fill="#000000" font-family="sans-serif" font-size="11" lengthAdjust="spacingAndGlyphs" textLength="77" x="211" y="102.0151">django 1.8.19</text><text fill="#000000" font-family="sans-serif" font-size="11" lengthAdjust="spacingAndGlyphs" textLength="79" x="211" y="114.8198">wagtail 1.10.1</text><line style="stroke: #A80036; stroke-width: 1.5;" x1="206" x2="352" y1="121.4141" y2="121.4141"/><!--class Proyecto 1--><rect fill="#FEFECE" filter="url(#fp88vv8h505fi)" height="73.6094" id="Proyecto 1" style="stroke: #A80036; stroke-width: 1.5;" width="99" x="229.5" y="189"/><ellipse cx="244.5" cy="205" fill="#ADD1B2" rx="11" ry="11" style="stroke: #A80036; stroke-width: 1.0;"/><path d="M247.4688,210.6406 Q246.8906,210.9375 246.25,211.0781 Q245.6094,211.2344 244.9063,211.2344 Q242.4063,211.2344 241.0781,209.5938 Q239.7656,207.9375 239.7656,204.8125 Q239.7656,201.6875 241.0781,200.0313 Q242.4063,198.375 244.9063,198.375 Q245.6094,198.375 246.25,198.5313 Q246.9063,198.6875 247.4688,198.9844 L247.4688,201.7031 Q246.8438,201.125 246.25,200.8594 Q245.6563,200.5781 245.0313,200.5781 Q243.6875,200.5781 243,201.6563 Q242.3125,202.7188 242.3125,204.8125 Q242.3125,206.9063 243,207.9844 Q243.6875,209.0469 245.0313,209.0469 Q245.6563,209.0469 246.25,208.7813 Q246.8438,208.5 247.4688,207.9219 L247.4688,210.6406 Z "/><text fill="#000000" font-family="sans-serif" font-size="12" lengthAdjust="spacingAndGlyphs" textLength="67" x="258.5" y="209.1543">Proyecto 1</text><line style="stroke: #A80036; stroke-width: 1.5;" x1="230.5" x2="327.5" y1="221" y2="221"/><text fill="#000000" font-family="sans-serif" font-size="11" lengthAdjust="spacingAndGlyphs" textLength="79" x="235.5" y="235.2104">wagtail 1.10.1</text><text fill="#000000" font-family="sans-serif" font-size="11" lengthAdjust="spacingAndGlyphs" textLength="77" x="235.5" y="248.0151">django 1.8.19</text><line style="stroke: #A80036; stroke-width: 1.5;" x1="230.5" x2="327.5" y1="254.6094" y2="254.6094"/><!--class Python 3.6.8--><rect fill="#FEFECE" filter="url(#fp88vv8h505fi)" height="86.4141" id="Python 3.6.8" style="stroke: #A80036; stroke-width: 1.5;" width="148" x="388" y="43"/><ellipse cx="419.65" cy="59" fill="#EB937F" rx="11" ry="11" style="stroke: #A80036; stroke-width: 1.0;"/><path d="M423.7594,65 L416.0406,65 L416.0406,52.6094 L423.7594,52.6094 L423.7594,54.7656 L418.4938,54.7656 L418.4938,57.4375 L423.2594,57.4375 L423.2594,59.5938 L418.4938,59.5938 L418.4938,62.8438 L423.7594,62.8438 L423.7594,65 Z "/><text fill="#000000" font-family="sans-serif" font-size="12" lengthAdjust="spacingAndGlyphs" textLength="79" x="437.35" y="63.1543">Python 3.6.8</text><line style="stroke: #A80036; stroke-width: 1.5;" x1="389" x2="535" y1="75" y2="75"/><text fill="#000000" font-family="sans-serif" font-size="11" lengthAdjust="spacingAndGlyphs" textLength="136" x="394" y="89.2104">[librerías preinstaladas]</text><text fill="#000000" font-family="sans-serif" font-size="11" lengthAdjust="spacingAndGlyphs" textLength="81" x="394" y="102.0151">pandas 0.21.1</text><text fill="#000000" font-family="sans-serif" font-size="11" lengthAdjust="spacingAndGlyphs" textLength="79" x="394" y="114.8198">wagtail 1.10.1</text><line style="stroke: #A80036; stroke-width: 1.5;" x1="389" x2="535" y1="121.4141" y2="121.4141"/><!--class Proyecto 2--><rect fill="#FEFECE" filter="url(#fp88vv8h505fi)" height="73.6094" id="Proyecto 2" style="stroke: #A80036; stroke-width: 1.5;" width="115" x="404.5" y="189"/><ellipse cx="426.7" cy="205" fill="#ADD1B2" rx="11" ry="11" style="stroke: #A80036; stroke-width: 1.0;"/><path d="M429.6688,210.6406 Q429.0906,210.9375 428.45,211.0781 Q427.8094,211.2344 427.1063,211.2344 Q424.6063,211.2344 423.2781,209.5938 Q421.9656,207.9375 421.9656,204.8125 Q421.9656,201.6875 423.2781,200.0313 Q424.6063,198.375 427.1063,198.375 Q427.8094,198.375 428.45,198.5313 Q429.1063,198.6875 429.6688,198.9844 L429.6688,201.7031 Q429.0438,201.125 428.45,200.8594 Q427.8563,200.5781 427.2313,200.5781 Q425.8875,200.5781 425.2,201.6563 Q424.5125,202.7188 424.5125,204.8125 Q424.5125,206.9063 425.2,207.9844 Q425.8875,209.0469 427.2313,209.0469 Q427.8563,209.0469 428.45,208.7813 Q429.0438,208.5 429.6688,207.9219 L429.6688,210.6406 Z "/><text fill="#000000" font-family="sans-serif" font-size="12" lengthAdjust="spacingAndGlyphs" textLength="67" x="442.3" y="209.1543">Proyecto 2</text><line style="stroke: #A80036; stroke-width: 1.5;" x1="405.5" x2="518.5" y1="221" y2="221"/><text fill="#000000" font-family="sans-serif" font-size="11" lengthAdjust="spacingAndGlyphs" textLength="81" x="410.5" y="235.2104">pandas 0.21.1</text><text fill="#000000" font-family="sans-serif" font-size="11" lengthAdjust="spacingAndGlyphs" textLength="103" x="410.5" y="248.0151">sqlalchemy 1.0.12</text><line style="stroke: #A80036; stroke-width: 1.5;" x1="405.5" x2="518.5" y1="254.6094" y2="254.6094"/><!--class Python 3.7.3--><rect fill="#FEFECE" filter="url(#fp88vv8h505fi)" height="86.4141" id="Python 3.7.3" style="stroke: #A80036; stroke-width: 1.5;" width="148" x="571" y="43"/><ellipse cx="602.65" cy="59" fill="#EB937F" rx="11" ry="11" style="stroke: #A80036; stroke-width: 1.0;"/><path d="M606.7594,65 L599.0406,65 L599.0406,52.6094 L606.7594,52.6094 L606.7594,54.7656 L601.4938,54.7656 L601.4938,57.4375 L606.2594,57.4375 L606.2594,59.5938 L601.4938,59.5938 L601.4938,62.8438 L606.7594,62.8438 L606.7594,65 Z "/><text fill="#000000" font-family="sans-serif" font-size="12" lengthAdjust="spacingAndGlyphs" textLength="79" x="620.35" y="63.1543">Python 3.7.3</text><line style="stroke: #A80036; stroke-width: 1.5;" x1="572" x2="718" y1="75" y2="75"/><text fill="#000000" font-family="sans-serif" font-size="11" lengthAdjust="spacingAndGlyphs" textLength="136" x="577" y="89.2104">[librerías preinstaladas]</text><text fill="#000000" font-family="sans-serif" font-size="11" lengthAdjust="spacingAndGlyphs" textLength="81" x="577" y="102.0151">pandas 0.23.4</text><text fill="#000000" font-family="sans-serif" font-size="11" lengthAdjust="spacingAndGlyphs" textLength="70" x="577" y="114.8198">django 2.1.7</text><line style="stroke: #A80036; stroke-width: 1.5;" x1="572" x2="718" y1="121.4141" y2="121.4141"/><!--class Proyecto 3--><rect fill="#FEFECE" filter="url(#fp88vv8h505fi)" height="73.6094" id="Proyecto 3" style="stroke: #A80036; stroke-width: 1.5;" width="99" x="595.5" y="189"/><ellipse cx="610.5" cy="205" fill="#ADD1B2" rx="11" ry="11" style="stroke: #A80036; stroke-width: 1.0;"/><path d="M613.4688,210.6406 Q612.8906,210.9375 612.25,211.0781 Q611.6094,211.2344 610.9063,211.2344 Q608.4063,211.2344 607.0781,209.5938 Q605.7656,207.9375 605.7656,204.8125 Q605.7656,201.6875 607.0781,200.0313 Q608.4063,198.375 610.9063,198.375 Q611.6094,198.375 612.25,198.5313 Q612.9063,198.6875 613.4688,198.9844 L613.4688,201.7031 Q612.8438,201.125 612.25,200.8594 Q611.6563,200.5781 611.0313,200.5781 Q609.6875,200.5781 609,201.6563 Q608.3125,202.7188 608.3125,204.8125 Q608.3125,206.9063 609,207.9844 Q609.6875,209.0469 611.0313,209.0469 Q611.6563,209.0469 612.25,208.7813 Q612.8438,208.5 613.4688,207.9219 L613.4688,210.6406 Z "/><text fill="#000000" font-family="sans-serif" font-size="12" lengthAdjust="spacingAndGlyphs" textLength="67" x="624.5" y="209.1543">Proyecto 3</text><line style="stroke: #A80036; stroke-width: 1.5;" x1="596.5" x2="693.5" y1="221" y2="221"/><text fill="#000000" font-family="sans-serif" font-size="11" lengthAdjust="spacingAndGlyphs" textLength="81" x="601.5" y="235.2104">pandas 0.23.4</text><text fill="#000000" font-family="sans-serif" font-size="11" lengthAdjust="spacingAndGlyphs" textLength="70" x="601.5" y="248.0151">django 2.1.7</text><line style="stroke: #A80036; stroke-width: 1.5;" x1="596.5" x2="693.5" y1="254.6094" y2="254.6094"/><!--link Python 3.6.7 to Proyecto 1--><path d="M279,129.147 C279,148.2685 279,170.5409 279,188.9032 " fill="none" id="Python 3.6.7-Proyecto 1" style="stroke: #A80036; stroke-width: 1.0;"/><!--link Python 3.6.8 to Proyecto 2--><path d="M462,129.147 C462,148.2685 462,170.5409 462,188.9032 " fill="none" id="Python 3.6.8-Proyecto 2" style="stroke: #A80036; stroke-width: 1.0;"/><!--link Python 3.7.3 to Proyecto 3--><path d="M645,129.147 C645,148.2685 645,170.5409 645,188.9032 " fill="none" id="Python 3.7.3-Proyecto 3" style="stroke: #A80036; stroke-width: 1.0;"/><!--
@startuml
set namespaceSeparator none
package "Entorno base" #DDAAAA {
    enum "Python 3.6" {
        [librerías preinstaladas]
    }  
}

package "entorno-01" #EEBBAA {
    "Python 3.6.7"  - - "Proyecto 1"
}

package "entorno-02" #EEAABB {
    "Python 3.6.8"  - - "Proyecto 2"
}

package "entorno-03" #DD66AA {
    "Python 3.7.3"  - - "Proyecto 3"
}


enum "Python 3.6.7" {
    [librerias preinstaladas]
    django 1.8.19
    wagtail 1.10.1
}

enum "Python 3.6.8" {
    [librerías preinstaladas]
    pandas 0.21.1
    wagtail 1.10.1
}

enum "Python 3.7.3" {
    [librerías preinstaladas]
    pandas 0.23.4
    django 2.1.7
}


class "Proyecto 1" {
    wagtail 1.10.1
    django 1.8.19
}

class "Proyecto 2" {
    pandas 0.21.1
    sqlalchemy 1.0.12
}

class "Proyecto 3" {
    pandas 0.23.4
    django 2.1.7
}

@enduml

PlantUML version 1.2019.03(Sun Mar 10 12:04:44 CET 2019)
(GPL source distribution)
Java Runtime: OpenJDK Runtime Environment
JVM: OpenJDK 64-Bit Server VM
Java Version: 10.0.2+13
Operating System: Linux
OS Version: 5.0.4-arch1-1-ARCH
Default Encoding: UTF-8
Language: en
Country: US
--></g></svg>