<?xml version="1.0" encoding="UTF-8" standalone="no"?><svg xmlns="http://www.w3.org/2000/svg" xmlns:xlink="http://www.w3.org/1999/xlink" contentScriptType="application/ecmascript" contentStyleType="text/css" height="430px" preserveAspectRatio="none" style="width:302px;height:430px;" version="1.1" viewBox="0 0 302 430" width="302px" zoomAndPan="magnify"><defs><filter height="300%" id="fpekiewtxuddq" width="300%" x="-1" y="-1"><feGaussianBlur result="blurOut" stdDeviation="2.0"/><feColorMatrix in="blurOut" result="blurOut2" type="matrix" values="0 0 0 0 0 0 0 0 0 0 0 0 0 0 0 0 0 0 .4 0"/><feOffset dx="4.0" dy="4.0" in="blurOut2" result="blurOut3"/><feBlend in="SourceGraphic" in2="blurOut3" mode="normal"/></filter></defs><g><!--cluster Entorno base--><polygon fill="#DDAAAA" filter="url(#fpekiewtxuddq)" points="14,16,125,16,132,38.2969,280,38.2969,280,418,14,418,14,16" style="stroke: #000000; stroke-width: 1.5;"/><line style="stroke: #000000; stroke-width: 1.5;" x1="14" x2="132" y1="38.2969" y2="38.2969"/><text fill="#000000" font-family="sans-serif" font-size="14" font-weight="bold" lengthAdjust="spacingAndGlyphs" textLength="105" x="18" y="30.9951">Entorno base</text><!--class Python 3.6--><rect fill="#FEFECE" filter="url(#fpekiewtxuddq)" height="99.2188" id="Python 3.6" style="stroke: #A80036; stroke-width: 1.5;" width="115" x="85.5" y="43"/><ellipse cx="107.7" cy="59" fill="#EB937F" rx="11" ry="11" style="stroke: #A80036; stroke-width: 1.0;"/><path d="M111.8094,65 L104.0906,65 L104.0906,52.6094 L111.8094,52.6094 L111.8094,54.7656 L106.5438,54.7656 L106.5438,57.4375 L111.3094,57.4375 L111.3094,59.5938 L106.5438,59.5938 L106.5438,62.8438 L111.8094,62.8438 L111.8094,65 Z "/><text fill="#000000" font-family="sans-serif" font-size="12" lengthAdjust="spacingAndGlyphs" textLength="67" x="123.3" y="63.1543">Python 3.6</text><line style="stroke: #A80036; stroke-width: 1.5;" x1="86.5" x2="199.5" y1="75" y2="75"/><text fill="#000000" font-family="sans-serif" font-size="11" lengthAdjust="spacingAndGlyphs" textLength="77" x="91.5" y="89.2104">django 1.8.19</text><text fill="#000000" font-family="sans-serif" font-size="11" lengthAdjust="spacingAndGlyphs" textLength="81" x="91.5" y="102.0151">pandas 0.21.1</text><text fill="#000000" font-family="sans-serif" font-size="11" lengthAdjust="spacingAndGlyphs" textLength="103" x="91.5" y="114.8198">sqlalchemy 1.0.12</text><text fill="#000000" font-family="sans-serif" font-size="11" lengthAdjust="spacingAndGlyphs" textLength="79" x="91.5" y="127.6245">wagtail 1.10.1</text><line style="stroke: #A80036; stroke-width: 1.5;" x1="86.5" x2="199.5" y1="134.2188" y2="134.2188"/><!--class Proyecto 1--><rect fill="#FEFECE" filter="url(#fpekiewtxuddq)" height="73.6094" id="Proyecto 1" style="stroke: #A80036; stroke-width: 1.5;" width="99" x="22.5" y="336"/><ellipse cx="37.5" cy="352" fill="#ADD1B2" rx="11" ry="11" style="stroke: #A80036; stroke-width: 1.0;"/><path d="M40.4688,357.6406 Q39.8906,357.9375 39.25,358.0781 Q38.6094,358.2344 37.9063,358.2344 Q35.4063,358.2344 34.0781,356.5938 Q32.7656,354.9375 32.7656,351.8125 Q32.7656,348.6875 34.0781,347.0313 Q35.4063,345.375 37.9063,345.375 Q38.6094,345.375 39.25,345.5313 Q39.9063,345.6875 40.4688,345.9844 L40.4688,348.7031 Q39.8438,348.125 39.25,347.8594 Q38.6563,347.5781 38.0313,347.5781 Q36.6875,347.5781 36,348.6563 Q35.3125,349.7188 35.3125,351.8125 Q35.3125,353.9063 36,354.9844 Q36.6875,356.0469 38.0313,356.0469 Q38.6563,356.0469 39.25,355.7813 Q39.8438,355.5 40.4688,354.9219 L40.4688,357.6406 Z "/><text fill="#000000" font-family="sans-serif" font-size="12" lengthAdjust="spacingAndGlyphs" textLength="67" x="51.5" y="356.1543">Proyecto 1</text><line style="stroke: #A80036; stroke-width: 1.5;" x1="23.5" x2="120.5" y1="368" y2="368"/><text fill="#000000" font-family="sans-serif" font-size="11" lengthAdjust="spacingAndGlyphs" textLength="79" x="28.5" y="382.2104">wagtail 1.10.1</text><text fill="#000000" font-family="sans-serif" font-size="11" lengthAdjust="spacingAndGlyphs" textLength="77" x="28.5" y="395.0151">django 1.8.19</text><line style="stroke: #A80036; stroke-width: 1.5;" x1="23.5" x2="120.5" y1="401.6094" y2="401.6094"/><!--class Proyecto 2--><rect fill="#FEFECE" filter="url(#fpekiewtxuddq)" height="73.6094" id="Proyecto 2" style="stroke: #A80036; stroke-width: 1.5;" width="115" x="156.5" y="336"/><ellipse cx="178.7" cy="352" fill="#ADD1B2" rx="11" ry="11" style="stroke: #A80036; stroke-width: 1.0;"/><path d="M181.6688,357.6406 Q181.0906,357.9375 180.45,358.0781 Q179.8094,358.2344 179.1063,358.2344 Q176.6063,358.2344 175.2781,356.5938 Q173.9656,354.9375 173.9656,351.8125 Q173.9656,348.6875 175.2781,347.0313 Q176.6063,345.375 179.1063,345.375 Q179.8094,345.375 180.45,345.5313 Q181.1063,345.6875 181.6688,345.9844 L181.6688,348.7031 Q181.0438,348.125 180.45,347.8594 Q179.8563,347.5781 179.2313,347.5781 Q177.8875,347.5781 177.2,348.6563 Q176.5125,349.7188 176.5125,351.8125 Q176.5125,353.9063 177.2,354.9844 Q177.8875,356.0469 179.2313,356.0469 Q179.8563,356.0469 180.45,355.7813 Q181.0438,355.5 181.6688,354.9219 L181.6688,357.6406 Z "/><text fill="#000000" font-family="sans-serif" font-size="12" lengthAdjust="spacingAndGlyphs" textLength="67" x="194.3" y="356.1543">Proyecto 2</text><line style="stroke: #A80036; stroke-width: 1.5;" x1="157.5" x2="270.5" y1="368" y2="368"/><text fill="#000000" font-family="sans-serif" font-size="11" lengthAdjust="spacingAndGlyphs" textLength="81" x="162.5" y="382.2104">pandas 0.21.1</text><text fill="#000000" font-family="sans-serif" font-size="11" lengthAdjust="spacingAndGlyphs" textLength="103" x="162.5" y="395.0151">sqlalchemy 1.0.12</text><line style="stroke: #A80036; stroke-width: 1.5;" x1="157.5" x2="270.5" y1="401.6094" y2="401.6094"/><!--class Proyecto 3--><rect fill="#FF0000" filter="url(#fpekiewtxuddq)" height="73.6094" id="Proyecto 3" style="stroke: #A80036; stroke-width: 1.5;" width="99" x="93.5" y="202"/><rect fill="#FF0000" height="32" style="stroke: #A80036; stroke-width: 1.5;" width="99" x="93.5" y="202"/><ellipse cx="108.5" cy="218" fill="#ADD1B2" rx="11" ry="11" style="stroke: #A80036; stroke-width: 1.0;"/><path d="M111.4688,223.6406 Q110.8906,223.9375 110.25,224.0781 Q109.6094,224.2344 108.9063,224.2344 Q106.4063,224.2344 105.0781,222.5938 Q103.7656,220.9375 103.7656,217.8125 Q103.7656,214.6875 105.0781,213.0313 Q106.4063,211.375 108.9063,211.375 Q109.6094,211.375 110.25,211.5313 Q110.9063,211.6875 111.4688,211.9844 L111.4688,214.7031 Q110.8438,214.125 110.25,213.8594 Q109.6563,213.5781 109.0313,213.5781 Q107.6875,213.5781 107,214.6563 Q106.3125,215.7188 106.3125,217.8125 Q106.3125,219.9063 107,220.9844 Q107.6875,222.0469 109.0313,222.0469 Q109.6563,222.0469 110.25,221.7813 Q110.8438,221.5 111.4688,220.9219 L111.4688,223.6406 Z "/><text fill="#000000" font-family="sans-serif" font-size="12" lengthAdjust="spacingAndGlyphs" textLength="67" x="122.5" y="222.1543">Proyecto 3</text><line style="stroke: #A80036; stroke-width: 1.5;" x1="94.5" x2="191.5" y1="234" y2="234"/><text fill="#000000" font-family="sans-serif" font-size="11" lengthAdjust="spacingAndGlyphs" textLength="81" x="99.5" y="248.2104">pandas 0.23.4</text><text fill="#000000" font-family="sans-serif" font-size="11" lengthAdjust="spacingAndGlyphs" textLength="70" x="99.5" y="261.0151">django 2.1.7</text><line style="stroke: #A80036; stroke-width: 1.5;" x1="94.5" x2="191.5" y1="267.6094" y2="267.6094"/><!--link Python 3.6 to Proyecto 1--><path d="M104.9856,142.2021 C93.4308,160.0903 82.1669,181.0477 76,202 C62.8781,246.5827 64.3048,300.5625 67.3962,335.7885 " fill="none" id="Python 3.6-Proyecto 1" style="stroke: #A80036; stroke-width: 1.0;"/><!--link Python 3.6 to Proyecto 2--><path d="M181.0144,142.2021 C192.5692,160.0903 203.8331,181.0477 210,202 C223.1219,246.5827 221.6952,300.5625 218.6038,335.7885 " fill="none" id="Python 3.6-Proyecto 2" style="stroke: #A80036; stroke-width: 1.0;"/><!--link Python 3.6 to Proyecto 3--><path d="M143,142.0982 C143,161.6884 143,183.807 143,201.9609 " fill="none" id="Python 3.6-Proyecto 3" style="stroke: #A80036; stroke-width: 1.0;"/><!--link Proyecto 3 to Proyecto 1--><path d="M120.8794,280.7487 C111.5326,298.3892 100.7363,318.7654 91.6714,335.8737 " fill="none" id="Proyecto 3-Proyecto 1" style="stroke: #A80036; stroke-width: 1.0;"/><path d="M117.347,278.8718 L120.6704,289.6864 M124.416,282.6174 L113.6014,285.9408 " fill="none" style="stroke: #A80036; stroke-width: 1.0;"/><!--link Proyecto 3 to Proyecto 2--><path d="M165.1206,280.7487 C174.4674,298.3892 185.2637,318.7654 194.3286,335.8737 " fill="none" id="Proyecto 3-Proyecto 2" style="stroke: #A80036; stroke-width: 1.0;"/><path d="M161.584,282.6174 L172.3986,285.9408 M168.653,278.8718 L165.3296,289.6864 " fill="none" style="stroke: #A80036; stroke-width: 1.0;"/><!--
@startuml
set namespaceSeparator none
package "Entorno base" #DDAAAA {
  "Python 3.6" - - "Proyecto 1"
  "Python 3.6" - - "Proyecto 2"
  "Python 3.6" - - "Proyecto 3"
  "Proyecto 3" x- - "Proyecto 1"
  "Proyecto 3" x- - "Proyecto 2"
}

enum "Python 3.6" {
    django 1.8.19
    pandas 0.21.1
    sqlalchemy 1.0.12   
    wagtail 1.10.1
}

class "Proyecto 1" {
    wagtail 1.10.1
    django 1.8.19
}

class "Proyecto 2" {
    pandas 0.21.1
    sqlalchemy 1.0.12
}

class "Proyecto 3" #red {
    pandas 0.23.4
    django 2.1.7
}


@enduml

PlantUML version 1.2019.03(Sun Mar 10 12:04:44 CET 2019)
(GPL source distribution)
Java Runtime: OpenJDK Runtime Environment
JVM: OpenJDK 64-Bit Server VM
Java Version: 10.0.2+13
Operating System: Linux
OS Version: 5.0.4-arch1-1-ARCH
Default Encoding: UTF-8
Language: en
Country: US
--></g></svg>