
                <svg id="trend-chart" width="660" height="400" title="Stack Overflow Trends Chart" version="1.1" xmlns="http://www.w3.org/2000/svg"><g></g><g class="chart-area" transform="translate(100, 20)"><g transform="translate(0,300)" fill="none" font-size="10" font-family="sans-serif" text-anchor="middle"><path class="domain" stroke="#000" d="M0.5,6V0.5H410.5V6"></path><g class="tick" opacity="1" transform="translate(17.181567177802116,0)"><line stroke="#000" y2="6" x1="0.5" x2="0.5"></line><text fill="#000" y="9" x="0.5" dy="0.71em" style="font-size: 12px;">2009</text></g><g class="tick" opacity="1" transform="translate(58.15911372763782,0)"><line stroke="#000" y2="6" x1="0.5" x2="0.5"></line><text fill="#000" y="9" x="0.5" dy="0.71em" style="font-size: 12px;">2010</text></g><g class="tick" opacity="1" transform="translate(99.13666027747352,0)"><line stroke="#000" y2="6" x1="0.5" x2="0.5"></line><text fill="#000" y="9" x="0.5" dy="0.71em" style="font-size: 12px;">2011</text></g><g class="tick" opacity="1" transform="translate(140.11420682730923,0)"><line stroke="#000" y2="6" x1="0.5" x2="0.5"></line><text fill="#000" y="9" x="0.5" dy="0.71em" style="font-size: 12px;">2012</text></g><g class="tick" opacity="1" transform="translate(181.20402062796643,0)"><line stroke="#000" y2="6" x1="0.5" x2="0.5"></line><text fill="#000" y="9" x="0.5" dy="0.71em" style="font-size: 12px;">2013</text></g><g class="tick" opacity="1" transform="translate(222.18156717780212,0)"><line stroke="#000" y2="6" x1="0.5" x2="0.5"></line><text fill="#000" y="9" x="0.5" dy="0.71em" style="font-size: 12px;">2014</text></g><g class="tick" opacity="1" transform="translate(263.1591137276378,0)"><line stroke="#000" y2="6" x1="0.5" x2="0.5"></line><text fill="#000" y="9" x="0.5" dy="0.71em" style="font-size: 12px;">2015</text></g><g class="tick" opacity="1" transform="translate(304.13666027747354,0)"><line stroke="#000" y2="6" x1="0.5" x2="0.5"></line><text fill="#000" y="9" x="0.5" dy="0.71em" style="font-size: 12px;">2016</text></g><g class="tick" opacity="1" transform="translate(345.2264740781307,0)"><line stroke="#000" y2="6" x1="0.5" x2="0.5"></line><text fill="#000" y="9" x="0.5" dy="0.71em" style="font-size: 12px;">2017</text></g><g class="tick" opacity="1" transform="translate(386.2040206279664,0)"><line stroke="#000" y2="6" x1="0.5" x2="0.5"></line><text fill="#000" y="9" x="0.5" dy="0.71em" style="font-size: 12px;">2018</text></g></g><g class="grid-lines" transform="translate(0,300)" fill="none" font-size="10" font-family="sans-serif" text-anchor="middle"><path class="domain" stroke="#000" d="M0.5,-300V0.5H410.5V-300"></path><g class="tick" opacity="1" transform="translate(17.181567177802116,0)"><line stroke="#000" y2="-300" x1="0.5" x2="0.5" style="stroke: #ccc; fill: none;"></line></g><g class="tick" opacity="1" transform="translate(58.15911372763782,0)"><line stroke="#000" y2="-300" x1="0.5" x2="0.5" style="stroke: #ccc; fill: none;"></line></g><g class="tick" opacity="1" transform="translate(99.13666027747352,0)"><line stroke="#000" y2="-300" x1="0.5" x2="0.5" style="stroke: #ccc; fill: none;"></line></g><g class="tick" opacity="1" transform="translate(140.11420682730923,0)"><line stroke="#000" y2="-300" x1="0.5" x2="0.5" style="stroke: #ccc; fill: none;"></line></g><g class="tick" opacity="1" transform="translate(181.20402062796643,0)"><line stroke="#000" y2="-300" x1="0.5" x2="0.5" style="stroke: #ccc; fill: none;"></line></g><g class="tick" opacity="1" transform="translate(222.18156717780212,0)"><line stroke="#000" y2="-300" x1="0.5" x2="0.5" style="stroke: #ccc; fill: none;"></line></g><g class="tick" opacity="1" transform="translate(263.1591137276378,0)"><line stroke="#000" y2="-300" x1="0.5" x2="0.5" style="stroke: #ccc; fill: none;"></line></g><g class="tick" opacity="1" transform="translate(304.13666027747354,0)"><line stroke="#000" y2="-300" x1="0.5" x2="0.5" style="stroke: #ccc; fill: none;"></line></g><g class="tick" opacity="1" transform="translate(345.2264740781307,0)"><line stroke="#000" y2="-300" x1="0.5" x2="0.5" style="stroke: #ccc; fill: none;"></line></g><g class="tick" opacity="1" transform="translate(386.2040206279664,0)"><line stroke="#000" y2="-300" x1="0.5" x2="0.5" style="stroke: #ccc; fill: none;"></line></g></g><text x="205" y="360" class="axis-label x-axis-label" style="text-anchor: middle; font-weight: bold;">Year</text><g fill="none" font-size="10" font-family="sans-serif" text-anchor="end"><path class="domain" stroke="#000" d="M-6,300.5H0.5V0.5H-6"></path><g class="tick" opacity="1" transform="translate(0,300)"><line stroke="#000" x2="-6" y1="0.5" y2="0.5"></line><text fill="#000" x="-9" y="0.5" dy="0.32em" style="font-size: 12px;">0.00%</text></g><g class="tick" opacity="1" transform="translate(0,262.5)"><line stroke="#000" x2="-6" y1="0.5" y2="0.5"></line><text fill="#000" x="-9" y="0.5" dy="0.32em" style="font-size: 12px;">2.00%</text></g><g class="tick" opacity="1" transform="translate(0,225)"><line stroke="#000" x2="-6" y1="0.5" y2="0.5"></line><text fill="#000" x="-9" y="0.5" dy="0.32em" style="font-size: 12px;">4.00%</text></g><g class="tick" opacity="1" transform="translate(0,187.5)"><line stroke="#000" x2="-6" y1="0.5" y2="0.5"></line><text fill="#000" x="-9" y="0.5" dy="0.32em" style="font-size: 12px;">6.00%</text></g><g class="tick" opacity="1" transform="translate(0,150)"><line stroke="#000" x2="-6" y1="0.5" y2="0.5"></line><text fill="#000" x="-9" y="0.5" dy="0.32em" style="font-size: 12px;">8.00%</text></g><g class="tick" opacity="1" transform="translate(0,112.5)"><line stroke="#000" x2="-6" y1="0.5" y2="0.5"></line><text fill="#000" x="-9" y="0.5" dy="0.32em" style="font-size: 12px;">10.00%</text></g><g class="tick" opacity="1" transform="translate(0,75)"><line stroke="#000" x2="-6" y1="0.5" y2="0.5"></line><text fill="#000" x="-9" y="0.5" dy="0.32em" style="font-size: 12px;">12.00%</text></g><g class="tick" opacity="1" transform="translate(0,37.49999999999994)"><line stroke="#000" x2="-6" y1="0.5" y2="0.5"></line><text fill="#000" x="-9" y="0.5" dy="0.32em" style="font-size: 12px;">14.00%</text></g><g class="tick" opacity="1" transform="translate(0,0)"><line stroke="#000" x2="-6" y1="0.5" y2="0.5"></line><text fill="#000" x="-9" y="0.5" dy="0.32em" style="font-size: 12px;">16.00%</text></g></g><g class="grid-lines" fill="none" font-size="10" font-family="sans-serif" text-anchor="end"><path class="domain" stroke="#000" d="M410,300.5H0.5V0.5H410"></path><g class="tick" opacity="1" transform="translate(0,300)"><line stroke="#000" x2="410" y1="0.5" y2="0.5" style="stroke: #ccc; fill: none;"></line></g><g class="tick" opacity="1" transform="translate(0,262.5)"><line stroke="#000" x2="410" y1="0.5" y2="0.5" style="stroke: #ccc; fill: none;"></line></g><g class="tick" opacity="1" transform="translate(0,225)"><line stroke="#000" x2="410" y1="0.5" y2="0.5" style="stroke: #ccc; fill: none;"></line></g><g class="tick" opacity="1" transform="translate(0,187.5)"><line stroke="#000" x2="410" y1="0.5" y2="0.5" style="stroke: #ccc; fill: none;"></line></g><g class="tick" opacity="1" transform="translate(0,150)"><line stroke="#000" x2="410" y1="0.5" y2="0.5" style="stroke: #ccc; fill: none;"></line></g><g class="tick" opacity="1" transform="translate(0,112.5)"><line stroke="#000" x2="410" y1="0.5" y2="0.5" style="stroke: #ccc; fill: none;"></line></g><g class="tick" opacity="1" transform="translate(0,75)"><line stroke="#000" x2="410" y1="0.5" y2="0.5" style="stroke: #ccc; fill: none;"></line></g><g class="tick" opacity="1" transform="translate(0,37.49999999999994)"><line stroke="#000" x2="410" y1="0.5" y2="0.5" style="stroke: #ccc; fill: none;"></line></g><g class="tick" opacity="1" transform="translate(0,0)"><line stroke="#000" x2="410" y1="0.5" y2="0.5" style="stroke: #ccc; fill: none;"></line></g></g><g class="lines"><path class="line" d="M3.480284775465498,229.14375L6.848302300109529,235.2L10.333264877692589,234.15L13.70128240233662,232.55625L17.181567177802116,226.40625L20.661851953267618,233.34375L23.80533497626871,230.5875L27.280941949616647,233.38125L30.648959474260682,227.8875L34.12924424972618,231.46875L37.49726177437021,233.4375L40.97754654983571,235.2L44.45783132530121,234.2625L47.82584884994524,227.175L51.3108114275283,224.64375L54.67882895217233,221.625L58.15911372763782,219.22500000000002L61.63939850310332,222.3L64.78288152610442,226.05L68.25848849945235,232.46249999999998L71.62650602409639,227.86875L75.10679079956188,226.25625000000002L78.47480832420591,220.29375L81.95509309967142,227.00625000000002L85.43537787513691,231.525L88.80339539978094,222.1125L92.288357977364,230.11875L95.65637550200803,233.5125L99.13666027747352,232.44375000000002L102.61694505293902,232.575L105.76042807594013,231.05625L109.23603504928806,235.0875L112.60405257393208,234.84375L116.0843373493976,235.125L119.45235487404162,232.33125L122.93263964950711,233.68125L126.41292442497263,236.2125L129.78094194961665,233.71875L133.26590452719972,234.0375L136.63392205184374,235.29375L140.11420682730923,232.81875L143.59449160277475,232.93124999999998L146.8502418765973,230.28750000000002L150.32584884994523,229.40625L153.69386637458928,229.74374999999998L157.17415115005477,225.4125L160.5421686746988,225.50625000000002L164.0224534501643,223.29375L167.5027382256298,226.3125L170.87075575027382,224.2125L174.3557183278569,220.05L177.7237358525009,221.23125L181.20402062796643,222.80625L184.68430540343192,218.94375000000002L187.82778842643302,218.83124999999998L191.30339539978095,214.5L194.67141292442497,213.29999999999998L198.15169769989046,211.36874999999998L201.5197152245345,210.01875L205,213.75L208.4802847754655,211.03125L211.84830230010954,204.7125L215.33326487769259,200.34375L218.70128240233663,205.38750000000002L222.18156717780212,203.7375L225.66185195326761,202.64999999999998L228.8053349762687,198.45L232.28094194961665,197.625L235.6489594742607,202.89375L239.12924424972618,198.80625000000003L242.49726177437023,196.36874999999998L245.97754654983572,197.02500000000003L249.4578313253012,202.29375000000002L252.82584884994526,197.475L256.3108114275283,193.63125L259.67882895217235,192.3L263.1591137276378,192L266.63939850310334,187.81875L269.7828815261044,186.7125L273.25848849945237,188.19375L276.6265060240964,188.04375L280.1067907995619,183.50625L283.4748083242059,183.09375L286.9550930996714,185.23125L290.4353778751369,185.60625L293.8033953997809,175.74375L297.288357977364,171.95624999999998L300.656375502008,174.8625L304.13666027747354,173.64374999999998L307.61694505293906,169.72500000000002L310.8726953267616,170.625L314.34830230010954,171.16875000000002L317.71631982475355,171.67499999999998L321.1966046002191,170.175L324.5646221248631,165.28125L328.0449069003286,168.15L331.5251916757941,166.57500000000002L334.8932092004381,157.01250000000002L338.37817177802117,149.83124999999998L341.74618930266524,151.01250000000002L345.2264740781307,150.24375L348.7067588535962,143.58750000000003L351.8502418765973,142.3125L355.32584884994526,137.98125L358.6938663745893,139.40624999999997L362.17415115005474,133.42499999999998L365.5421686746988,125.73750000000001L369.0224534501643,128.30625L372.5027382256298,128.19375L375.8707557502738,123.11250000000001L379.3557183278569,121.20000000000002L382.7237358525009,116.98124999999999L386.2040206279664,120.1875L389.68430540343195,110.71875L392.82778842643296,115.48125000000002L396.3033953997809,113.26875000000001L399.671412924425,115.125L403.15169769989046,107.56875L406.5197152245345,102.05625L410,102.99375" data-legend="python" style="stroke: rgb(31, 119, 180); fill: none;"></path><path class="line" d="M3.480284775465498,151.78125L6.848302300109529,154.0875L10.333264877692589,160.44375L13.70128240233662,172.425L17.181567177802116,164.94375000000002L20.661851953267618,172.66875L23.80533497626871,169.03125L27.280941949616647,166.57500000000002L30.648959474260682,168.7125L34.12924424972618,161.04375000000002L37.49726177437021,169.98749999999998L40.97754654983571,175.48125000000002L44.45783132530121,172.40625L47.82584884994524,171.58125L51.3108114275283,166.23749999999998L54.67882895217233,167.51250000000002L58.15911372763782,145.4625L61.63939850310332,151.05L64.78288152610442,141.29999999999998L68.25848849945235,154.89375L71.62650602409639,150.3L75.10679079956188,156.61875L78.47480832420591,161.625L81.95509309967142,162.075L85.43537787513691,156.43125L88.80339539978094,152.86875L92.288357977364,150.03750000000002L95.65637550200803,147.84375L99.13666027747352,147.48749999999998L102.61694505293902,145.6875L105.76042807594013,143.58750000000003L109.23603504928806,146.3625L112.60405257393208,141.16875L116.0843373493976,151.6125L119.45235487404162,149.41875L122.93263964950711,149.28750000000002L126.41292442497263,148.44375L129.78094194961665,143.34375L133.26590452719972,135.6375L136.63392205184374,135.05624999999998L140.11420682730923,137.75625000000002L143.59449160277475,135.46875000000003L146.8502418765973,127.81875L150.32584884994523,126.61875L153.69386637458928,131.6625L157.17415115005477,142.23749999999998L160.5421686746988,140.08125L164.0224534501643,139.14374999999998L167.5027382256298,136.74375L170.87075575027382,132.73125000000002L174.3557183278569,129.20625L177.7237358525009,129.39374999999998L181.20402062796643,138.39375L184.68430540343192,134.00625L187.82778842643302,130.08749999999998L191.30339539978095,124.29374999999999L194.67141292442497,129.375L198.15169769989046,136.35L201.5197152245345,140.56875L205,135.95624999999998L208.4802847754655,117.73124999999999L211.84830230010954,111.16875000000002L215.33326487769259,102.58125000000001L218.70128240233663,104.00625000000002L222.18156717780212,116.68125L225.66185195326761,109.59375L228.8053349762687,103.63125L232.28094194961665,100.8375L235.6489594742607,110.98125000000002L239.12924424972618,118.55625L242.49726177437023,118.25625L245.97754654983572,121.66875000000002L249.4578313253012,113.15625L252.82584884994526,107.90625000000003L256.3108114275283,101.23125000000002L259.67882895217235,104.17499999999998L263.1591137276378,115.01250000000002L266.63939850310334,115.18124999999998L269.7828815261044,106.85624999999999L273.25848849945237,106.36875L276.6265060240964,114.46875L280.1067907995619,123.61875L283.4748083242059,122.4L286.9550930996714,125.00625L290.4353778751369,122.83125000000001L293.8033953997809,115.36875L297.288357977364,114.46875L300.656375502008,121.66875000000002L304.13666027747354,129.39374999999998L307.61694505293906,124.01250000000002L310.8726953267616,116.625L314.34830230010954,115.96875L317.71631982475355,132.54375L321.1966046002191,139.36875L324.5646221248631,142.9125L328.0449069003286,144.675L331.5251916757941,140.7375L334.8932092004381,137.19375L338.37817177802117,133.95L341.74618930266524,141.35625L345.2264740781307,147.03750000000002L348.7067588535962,145.44375L351.8502418765973,140.10000000000002L355.32584884994526,134.32500000000002L358.6938663745893,136.95000000000002L362.17415115005474,147.65625L365.5421686746988,153.675L369.0224534501643,156.50625L372.5027382256298,155.625L375.8707557502738,148.575L379.3557183278569,145.40625000000003L382.7237358525009,148.8375L386.2040206279664,160.03125000000003L389.68430540343195,156.975L392.82778842643296,157.01250000000002L396.3033953997809,148.70625L399.671412924425,152.98125000000002L403.15169769989046,162.0375L406.5197152245345,165.43125L410,169.98749999999998" data-legend="java" style="stroke: rgb(255, 127, 14); fill: none;"></path><path class="line" d="M3.480284775465498,237.075L6.848302300109529,221.55L10.333264877692589,226.59375L13.70128240233662,226.575L17.181567177802116,225.6L20.661851953267618,218.7L23.80533497626871,217.89375L27.280941949616647,215.85L30.648959474260682,214.725L34.12924424972618,196.425L37.49726177437021,183.65625L40.97754654983571,175.53750000000002L44.45783132530121,172.2375L47.82584884994524,178.59375L51.3108114275283,169.85625000000002L54.67882895217233,160.5375L58.15911372763782,157.29375000000002L61.63939850310332,168.24375L64.78288152610442,166.05L68.25848849945235,163.875L71.62650602409639,156.91875L75.10679079956188,163.1625L78.47480832420591,158.5875L81.95509309967142,149.04375L85.43537787513691,156.7875L88.80339539978094,167.64374999999998L92.288357977364,162.675L95.65637550200803,155.19375000000002L99.13666027747352,149.90625000000003L102.61694505293902,149.25000000000003L105.76042807594013,150.05625L109.23603504928806,150.75L112.60405257393208,149.60625L116.0843373493976,149.04375L119.45235487404162,139.05L122.93263964950711,144.58125L126.41292442497263,152.47500000000002L129.78094194961665,151.55624999999998L133.26590452719972,151.1625L136.63392205184374,150L140.11420682730923,150.43125L143.59449160277475,150.54375L146.8502418765973,148.10625000000002L150.32584884994523,149.3625L153.69386637458928,148.5L157.17415115005477,149.30625L160.5421686746988,145.79999999999998L164.0224534501643,143.23125L167.5027382256298,145.04999999999998L170.87075575027382,153.24374999999998L174.3557183278569,151.6875L177.7237358525009,147.375L181.20402062796643,147.63750000000002L184.68430540343192,146.86875L187.82778842643302,147.7125L191.30339539978095,153.6L194.67141292442497,152.64375L198.15169769989046,149.86875L201.5197152245345,148.48125L205,142.85625L208.4802847754655,139.0125L211.84830230010954,144.28125L215.33326487769259,141.9L218.70128240233663,136.79999999999998L222.18156717780212,133.3125L225.66185195326761,135.00000000000003L228.8053349762687,134.68125L232.28094194961665,129.5625L235.6489594742607,142.96875L239.12924424972618,149.75625L242.49726177437023,148.98749999999998L245.97754654983572,148.76250000000002L249.4578313253012,149.4375L252.82584884994526,152.625L256.3108114275283,153.58124999999998L259.67882895217235,150.9375L263.1591137276378,146.38125L266.63939850310334,150.05625L269.7828815261044,152.625L273.25848849945237,152.2125L276.6265060240964,152.98125000000002L280.1067907995619,156.84375L283.4748083242059,152.5875L286.9550930996714,152.71875L290.4353778751369,157.21875L293.8033953997809,160.14374999999998L297.288357977364,159.86249999999998L300.656375502008,150.525L304.13666027747354,149.41875L307.61694505293906,151.72500000000002L310.8726953267616,159.5625L314.34830230010954,162.01875L317.71631982475355,157.25625L321.1966046002191,161.3625L324.5646221248631,163.10625L328.0449069003286,167.28750000000002L331.5251916757941,167.45625L334.8932092004381,168.95625L338.37817177802117,172.2375L341.74618930266524,167.45625L345.2264740781307,166.33124999999998L348.7067588535962,166.29375000000002L351.8502418765973,169.06875L355.32584884994526,169.51875L358.6938663745893,168.80625L362.17415115005474,176.10000000000002L365.5421686746988,176.925L369.0224534501643,177.07500000000002L372.5027382256298,179.1375L375.8707557502738,184.35L379.3557183278569,186.31875L382.7237358525009,185.66250000000002L386.2040206279664,185.00625L389.68430540343195,191.45625L392.82778842643296,197.56875L396.3033953997809,200.625L399.671412924425,198.1125L403.15169769989046,201.14999999999998L406.5197152245345,203.2125L410,201.05624999999998" data-legend="php" style="stroke: rgb(44, 160, 44); fill: none;"></path><path class="line" d="M3.480284775465498,85.98750000000001L6.848302300109529,48.46875000000003L10.333264877692589,48.525000000000006L13.70128240233662,56.02499999999998L17.181567177802116,23.118750000000034L20.661851953267618,26.043750000000045L23.80533497626871,14.043749999999989L27.280941949616647,11.606249999999989L30.648959474260682,44.17500000000001L34.12924424972618,45.318749999999994L37.49726177437021,48.150000000000034L40.97754654983571,47.02499999999998L44.45783132530121,54.9375L47.82584884994524,57.993750000000034L51.3108114275283,73.89374999999998L54.67882895217233,78.75000000000003L58.15911372763782,87.88125000000002L61.63939850310332,87.69375000000002L64.78288152610442,84.54375000000002L68.25848849945235,84.7875L71.62650602409639,86.9625L75.10679079956188,94.63125000000002L78.47480832420591,95.25L81.95509309967142,96.225L85.43537787513691,105.13125000000002L88.80339539978094,102.95624999999998L92.288357977364,104.36249999999998L95.65637550200803,109.63125000000002L99.13666027747352,113.85000000000002L102.61694505293902,115.5L105.76042807594013,115.89375000000001L109.23603504928806,119.62500000000003L112.60405257393208,114.01874999999998L116.0843373493976,116.64375000000001L119.45235487404162,122.475L122.93263964950711,125.49375L126.41292442497263,130.63125000000002L129.78094194961665,131.23125L133.26590452719972,131.11875L136.63392205184374,132.99375L140.11420682730923,132.91875000000002L143.59449160277475,138.7875L146.8502418765973,138.825L150.32584884994523,139.8375L153.69386637458928,140.175L157.17415115005477,139.29375000000002L160.5421686746988,139.0125L164.0224534501643,143.06250000000003L167.5027382256298,141.76875L170.87075575027382,142.44375000000002L174.3557183278569,146.6625L177.7237358525009,149.73749999999998L181.20402062796643,149.53125L184.68430540343192,148.65L187.82778842643302,147.88125000000002L191.30339539978095,149.51250000000002L194.67141292442497,149.98125000000002L198.15169769989046,150.3375L201.5197152245345,151.0875L205,149.1375L208.4802847754655,145.81875000000002L211.84830230010954,147.24375L215.33326487769259,146.5875L218.70128240233663,147.1125L222.18156717780212,149.49375L225.66185195326761,151.06875L228.8053349762687,155.5125L232.28094194961665,153.99375L235.6489594742607,153.78750000000002L239.12924424972618,157.25625L242.49726177437023,156.69375L245.97754654983572,158.34375L249.4578313253012,162.29999999999998L252.82584884994526,165.15L256.3108114275283,167.90625L259.67882895217235,167.28750000000002L263.1591137276378,168.50625L266.63939850310334,169.875L269.7828815261044,170.4L273.25848849945237,171.88125L276.6265060240964,166.2L280.1067907995619,166.03125L283.4748083242059,165.6375L286.9550930996714,164.41875L290.4353778751369,165.20625L293.8033953997809,172.48125L297.288357977364,170.8125L300.656375502008,169.03125L304.13666027747354,173.3625L307.61694505293906,174.375L310.8726953267616,174.54375L314.34830230010954,170.38125000000002L317.71631982475355,167.5875L321.1966046002191,168.26250000000002L324.5646221248631,173.71875L328.0449069003286,169.8L331.5251916757941,179.51250000000002L334.8932092004381,178.36875000000003L338.37817177802117,176.41875000000002L341.74618930266524,177.50625000000002L345.2264740781307,176.90625L348.7067588535962,177.84375L351.8502418765973,180.1125L355.32584884994526,184.5L358.6938663745893,180.375L362.17415115005474,182.11875000000003L365.5421686746988,184.05L369.0224534501643,185.1L372.5027382256298,189.13125L375.8707557502738,191.925L379.3557183278569,195.60000000000002L382.7237358525009,192.91875L386.2040206279664,195.4125L389.68430540343195,199.83749999999998L392.82778842643296,199.18125L396.3033953997809,198.61875L399.671412924425,194.90625L403.15169769989046,199.10625000000002L406.5197152245345,196.40625L410,194.10000000000002" data-legend="c#" style="stroke: rgb(214, 39, 40); fill: none;"></path></g></g><g transform="translate(20, 150)"><text transform="rotate(-90)" x="-50" y="0" dy="1em" class="axis-label y-axis-label" style="text-anchor: middle; font-weight: bold;">% of Stack Overflow questions that month</text></g><g class="legend" transform="translate(530, 30)" style="font-size: 12px;"><text class="legend-title" style="font-weight: bold;">Tag</text><g class="legend-items" transform="translate(0,20)"><text y="0em" x="1em">c#</text><text y="1em" x="1em">java</text><text y="2em" x="1em">python</text><text y="3em" x="1em">php</text><circle cy="-0.25em" cx="0" r="0.4em" style="fill: rgb(214, 39, 40);"></circle><circle cy="0.75em" cx="0" r="0.4em" style="fill: rgb(255, 127, 14);"></circle><circle cy="1.75em" cx="0" r="0.4em" style="fill: rgb(31, 119, 180);"></circle><circle cy="2.75em" cx="0" r="0.4em" style="fill: rgb(44, 160, 44);"></circle></g><rect class="legend-box"></rect></g></svg>
            