
            <svg id="trend-chart" width="660" height="400" title="Stack Overflow Trends Chart" version="1.1" xmlns="http://www.w3.org/2000/svg"><g></g><g class="chart-area" transform="translate(100, 20)"><g transform="translate(0,300)" fill="none" font-size="10" font-family="sans-serif" text-anchor="middle"><path class="domain" stroke="#000" d="M0.5,6V0.5H410.5V6"></path><g class="tick" opacity="1" transform="translate(16.759184036858564,0)"><line stroke="#000" y2="6" x1="0.5" x2="0.5"></line><text fill="#000" y="9" x="0.5" dy="0.71em" style="font-size: 12px;">2009</text></g><g class="tick" opacity="1" transform="translate(56.72935887020488,0)"><line stroke="#000" y2="6" x1="0.5" x2="0.5"></line><text fill="#000" y="9" x="0.5" dy="0.71em" style="font-size: 12px;">2010</text></g><g class="tick" opacity="1" transform="translate(96.6995337035512,0)"><line stroke="#000" y2="6" x1="0.5" x2="0.5"></line><text fill="#000" y="9" x="0.5" dy="0.71em" style="font-size: 12px;">2011</text></g><g class="tick" opacity="1" transform="translate(136.66970853689753,0)"><line stroke="#000" y2="6" x1="0.5" x2="0.5"></line><text fill="#000" y="9" x="0.5" dy="0.71em" style="font-size: 12px;">2012</text></g><g class="tick" opacity="1" transform="translate(176.74939069855435,0)"><line stroke="#000" y2="6" x1="0.5" x2="0.5"></line><text fill="#000" y="9" x="0.5" dy="0.71em" style="font-size: 12px;">2013</text></g><g class="tick" opacity="1" transform="translate(216.71956553190068,0)"><line stroke="#000" y2="6" x1="0.5" x2="0.5"></line><text fill="#000" y="9" x="0.5" dy="0.71em" style="font-size: 12px;">2014</text></g><g class="tick" opacity="1" transform="translate(256.68974036524696,0)"><line stroke="#000" y2="6" x1="0.5" x2="0.5"></line><text fill="#000" y="9" x="0.5" dy="0.71em" style="font-size: 12px;">2015</text></g><g class="tick" opacity="1" transform="translate(296.6599151985933,0)"><line stroke="#000" y2="6" x1="0.5" x2="0.5"></line><text fill="#000" y="9" x="0.5" dy="0.71em" style="font-size: 12px;">2016</text></g><g class="tick" opacity="1" transform="translate(336.7395973602502,0)"><line stroke="#000" y2="6" x1="0.5" x2="0.5"></line><text fill="#000" y="9" x="0.5" dy="0.71em" style="font-size: 12px;">2017</text></g><g class="tick" opacity="1" transform="translate(376.70977219359645,0)"><line stroke="#000" y2="6" x1="0.5" x2="0.5"></line><text fill="#000" y="9" x="0.5" dy="0.71em" style="font-size: 12px;">2018</text></g></g><g class="grid-lines" transform="translate(0,300)" fill="none" font-size="10" font-family="sans-serif" text-anchor="middle"><path class="domain" stroke="#000" d="M0.5,-300V0.5H410.5V-300"></path><g class="tick" opacity="1" transform="translate(16.759184036858564,0)"><line stroke="#000" y2="-300" x1="0.5" x2="0.5" style="stroke: #ccc; fill: none;"></line></g><g class="tick" opacity="1" transform="translate(56.72935887020488,0)"><line stroke="#000" y2="-300" x1="0.5" x2="0.5" style="stroke: #ccc; fill: none;"></line></g><g class="tick" opacity="1" transform="translate(96.6995337035512,0)"><line stroke="#000" y2="-300" x1="0.5" x2="0.5" style="stroke: #ccc; fill: none;"></line></g><g class="tick" opacity="1" transform="translate(136.66970853689753,0)"><line stroke="#000" y2="-300" x1="0.5" x2="0.5" style="stroke: #ccc; fill: none;"></line></g><g class="tick" opacity="1" transform="translate(176.74939069855435,0)"><line stroke="#000" y2="-300" x1="0.5" x2="0.5" style="stroke: #ccc; fill: none;"></line></g><g class="tick" opacity="1" transform="translate(216.71956553190068,0)"><line stroke="#000" y2="-300" x1="0.5" x2="0.5" style="stroke: #ccc; fill: none;"></line></g><g class="tick" opacity="1" transform="translate(256.68974036524696,0)"><line stroke="#000" y2="-300" x1="0.5" x2="0.5" style="stroke: #ccc; fill: none;"></line></g><g class="tick" opacity="1" transform="translate(296.6599151985933,0)"><line stroke="#000" y2="-300" x1="0.5" x2="0.5" style="stroke: #ccc; fill: none;"></line></g><g class="tick" opacity="1" transform="translate(336.7395973602502,0)"><line stroke="#000" y2="-300" x1="0.5" x2="0.5" style="stroke: #ccc; fill: none;"></line></g><g class="tick" opacity="1" transform="translate(376.70977219359645,0)"><line stroke="#000" y2="-300" x1="0.5" x2="0.5" style="stroke: #ccc; fill: none;"></line></g></g><text x="205" y="360" class="axis-label x-axis-label" style="text-anchor: middle; font-weight: bold;">Year</text><g fill="none" font-size="10" font-family="sans-serif" text-anchor="end"><path class="domain" stroke="#000" d="M-6,300.5H0.5V0.5H-6"></path><g class="tick" opacity="1" transform="translate(0,300)"><line stroke="#000" x2="-6" y1="0.5" y2="0.5"></line><text fill="#000" x="-9" y="0.5" dy="0.32em" style="font-size: 12px;">0.00%</text></g><g class="tick" opacity="1" transform="translate(0,262.5)"><line stroke="#000" x2="-6" y1="0.5" y2="0.5"></line><text fill="#000" x="-9" y="0.5" dy="0.32em" style="font-size: 12px;">2.00%</text></g><g class="tick" opacity="1" transform="translate(0,225)"><line stroke="#000" x2="-6" y1="0.5" y2="0.5"></line><text fill="#000" x="-9" y="0.5" dy="0.32em" style="font-size: 12px;">4.00%</text></g><g class="tick" opacity="1" transform="translate(0,187.5)"><line stroke="#000" x2="-6" y1="0.5" y2="0.5"></line><text fill="#000" x="-9" y="0.5" dy="0.32em" style="font-size: 12px;">6.00%</text></g><g class="tick" opacity="1" transform="translate(0,150)"><line stroke="#000" x2="-6" y1="0.5" y2="0.5"></line><text fill="#000" x="-9" y="0.5" dy="0.32em" style="font-size: 12px;">8.00%</text></g><g class="tick" opacity="1" transform="translate(0,112.5)"><line stroke="#000" x2="-6" y1="0.5" y2="0.5"></line><text fill="#000" x="-9" y="0.5" dy="0.32em" style="font-size: 12px;">10.00%</text></g><g class="tick" opacity="1" transform="translate(0,75)"><line stroke="#000" x2="-6" y1="0.5" y2="0.5"></line><text fill="#000" x="-9" y="0.5" dy="0.32em" style="font-size: 12px;">12.00%</text></g><g class="tick" opacity="1" transform="translate(0,37.49999999999994)"><line stroke="#000" x2="-6" y1="0.5" y2="0.5"></line><text fill="#000" x="-9" y="0.5" dy="0.32em" style="font-size: 12px;">14.00%</text></g><g class="tick" opacity="1" transform="translate(0,0)"><line stroke="#000" x2="-6" y1="0.5" y2="0.5"></line><text fill="#000" x="-9" y="0.5" dy="0.32em" style="font-size: 12px;">16.00%</text></g></g><g class="grid-lines" fill="none" font-size="10" font-family="sans-serif" text-anchor="end"><path class="domain" stroke="#000" d="M410,300.5H0.5V0.5H410"></path><g class="tick" opacity="1" transform="translate(0,300)"><line stroke="#000" x2="410" y1="0.5" y2="0.5" style="stroke: #ccc; fill: none;"></line></g><g class="tick" opacity="1" transform="translate(0,262.5)"><line stroke="#000" x2="410" y1="0.5" y2="0.5" style="stroke: #ccc; fill: none;"></line></g><g class="tick" opacity="1" transform="translate(0,225)"><line stroke="#000" x2="410" y1="0.5" y2="0.5" style="stroke: #ccc; fill: none;"></line></g><g class="tick" opacity="1" transform="translate(0,187.5)"><line stroke="#000" x2="410" y1="0.5" y2="0.5" style="stroke: #ccc; fill: none;"></line></g><g class="tick" opacity="1" transform="translate(0,150)"><line stroke="#000" x2="410" y1="0.5" y2="0.5" style="stroke: #ccc; fill: none;"></line></g><g class="tick" opacity="1" transform="translate(0,112.5)"><line stroke="#000" x2="410" y1="0.5" y2="0.5" style="stroke: #ccc; fill: none;"></line></g><g class="tick" opacity="1" transform="translate(0,75)"><line stroke="#000" x2="410" y1="0.5" y2="0.5" style="stroke: #ccc; fill: none;"></line></g><g class="tick" opacity="1" transform="translate(0,37.49999999999994)"><line stroke="#000" x2="410" y1="0.5" y2="0.5" style="stroke: #ccc; fill: none;"></line></g><g class="tick" opacity="1" transform="translate(0,0)"><line stroke="#000" x2="410" y1="0.5" y2="0.5" style="stroke: #ccc; fill: none;"></line></g></g><g class="lines"><path class="line" d="M3.394727177626674,229.10625L6.679947026942809,235.21875L10.079237009915754,234.09375L13.364456859231892,232.46249999999998L16.759184036858564,226.33125L20.153911214485237,233.28750000000002L23.2201164071803,230.53125L26.610280779460695,233.30625L29.895500628776837,227.83125L33.29022780640351,231.39375L36.57544765571964,233.38125L39.97017483334632,235.2L43.36490201097299,234.20625L46.650121860289126,227.11875L50.04941184326207,224.60625L53.334631692578206,221.6625L56.72935887020488,219.14999999999998L60.124086047831554,222.20625L63.19029124052661,226.06875L66.58045561280701,232.44375000000002L69.86567546212315,227.925L73.26040263974983,226.3125L76.54562248906596,220.40625L79.94034966669264,227.02499999999998L83.3350768443193,231.45L86.62029669363545,222.075L90.01958667660838,230.08125L93.30480652592453,233.49374999999998L96.6995337035512,232.425L100.09426088117787,232.55625L103.16046607387294,231.01875L106.55063044615333,235.125L109.83585029546948,234.8625L113.23057747309615,235.0875L116.51579732241228,232.3125L119.91052450003896,233.7L123.30525167766562,236.15625L126.59047152698177,233.71875L129.98976150995472,234.01875L133.27498135927084,235.275L136.66970853689753,232.8L140.0644357145242,232.93124999999998L143.24014823552977,230.30624999999998L146.63031260781017,229.3875L149.91553245712632,229.72500000000002L153.31025963475298,225.39375L156.59547948406913,225.50625000000002L159.9902066616958,223.275L163.38493383932246,226.3125L166.6701536886386,224.15625L170.06944367161157,220.05L173.3546635209277,221.19375000000002L176.74939069855435,222.7875L180.14411787618104,218.90625L183.21032306887608,218.8125L186.6004874411565,214.48125L189.88570729047262,213.2625L193.28043446809932,211.33125L196.56565431741544,209.98125L199.9603814950421,213.7125L203.3551086726688,210.95625L206.6403285219849,204.65625L210.0396185049579,200.34375L213.324838354274,205.38750000000002L216.71956553190068,203.7L220.11429270952735,202.63125000000002L223.1804979022224,198.39375L226.57066227450284,197.60625L229.85588212381893,202.875L233.25060930144565,198.78750000000002L236.53582915076174,196.33125L239.93055632838843,197.04375L243.3252835060151,202.25625L246.61050335533125,197.45625L250.00979333830418,193.66875L253.29501318762033,192.2625L256.68974036524696,191.9625L260.08446754287365,187.85625L263.1506727355687,186.65625L266.54083710784914,188.15625L269.8260569571653,188.02499999999998L273.2207841347919,183.4875L276.5060039841081,183.09375L279.9007311617347,185.17499999999998L283.2954583393614,185.58750000000003L286.58067818867755,175.6875L289.9799681716505,171.89999999999998L293.2651880209666,174.84375L296.6599151985933,173.56875L300.05464237622,169.66875L303.2303548972256,170.55L306.62051926950596,171.13125L309.90573911882217,171.58125L313.3004662964488,170.10000000000002L316.58568614576495,165.26250000000002L319.9804133233916,168.09375L323.3751405010183,166.48125000000002L326.66036035033443,156.99374999999998L330.0596503333074,149.73749999999998L333.3448701826235,150.9L336.7395973602502,150.15L340.1343245378768,143.47500000000002L343.2005297305719,142.21874999999997L346.5906941028523,137.83125L349.87591395216845,139.3125L353.27064112979514,133.38750000000002L356.55586097911123,125.58749999999998L359.9505881567379,128.11875L363.34531533436456,123.525L366.63053518368076,115.38749999999999L370.02982516665367,114.13125L373.3150450159698,115.29374999999999L376.70977219359645,120.05625L380.10449937122314,110.4L383.1707045639182,115.19999999999999L386.56086893619863,113.1L389.8460887855148,114.91874999999999L393.2408159631414,107.38125L396.52603581245756,101.73750000000001L399.9207629900842,102.13125000000002L403.3154901677109,104.2875L406.60071001702704,100.23750000000001L410,88.23749999999998" data-legend="python" style="stroke: rgb(31, 119, 180); fill: none;"></path><path class="line" d="M3.394727177626674,151.55624999999998L6.679947026942809,153.975L10.079237009915754,160.16250000000002L13.364456859231892,172.575L16.759184036858564,165.01875L20.153911214485237,172.66875L23.2201164071803,169.05L26.610280779460695,166.51875L29.895500628776837,168.65625L33.29022780640351,161.0625L36.57544765571964,170.08124999999998L39.97017483334632,175.44375000000002L43.36490201097299,172.35000000000002L46.650121860289126,171.54375L50.04941184326207,166.29375000000002L53.334631692578206,167.60625L56.72935887020488,145.3875L60.124086047831554,151.01250000000002L63.19029124052661,141.26250000000002L66.58045561280701,154.8375L69.86567546212315,150.1875L73.26040263974983,156.65625L76.54562248906596,161.56875L79.94034966669264,162.0375L83.3350768443193,156.41250000000002L86.62029669363545,152.8875L90.01958667660838,150.03750000000002L93.30480652592453,147.86249999999998L96.6995337035512,147.50625000000002L100.09426088117787,145.6875L103.16046607387294,143.58750000000003L106.55063044615333,146.32500000000002L109.83585029546948,141.18750000000003L113.23057747309615,151.65L116.51579732241228,149.38125000000002L119.91052450003896,149.32500000000002L123.30525167766562,148.3875L126.59047152698177,143.34375L129.98976150995472,135.58125L133.27498135927084,135.00000000000003L136.66970853689753,137.71875L140.0644357145242,135.46875000000003L143.24014823552977,127.74375L146.63031260781017,126.65624999999997L149.91553245712632,131.68125L153.31025963475298,142.27499999999998L156.59547948406913,140.0625L159.9902066616958,139.18125L163.38493383932246,136.70625L166.6701536886386,132.71250000000003L170.06944367161157,129.20625L173.3546635209277,129.375L176.74939069855435,138.39375L180.14411787618104,133.9875L183.21032306887608,130.10625L186.6004874411565,124.29374999999999L189.88570729047262,129.39374999999998L193.28043446809932,136.42499999999998L196.56565431741544,140.56875L199.9603814950421,135.9375L203.3551086726688,117.73124999999999L206.6403285219849,111.14999999999998L210.0396185049579,102.61874999999998L213.324838354274,104.0625L216.71956553190068,116.625L220.11429270952735,109.65L223.1804979022224,103.57499999999999L226.57066227450284,100.81874999999997L229.85588212381893,111.01874999999998L233.25060930144565,118.4625L236.53582915076174,118.20000000000002L239.93055632838843,121.66875000000002L243.3252835060151,113.11875000000003L246.61050335533125,107.90625000000003L250.00979333830418,101.25L253.29501318762033,104.19375L256.68974036524696,114.975L260.08446754287365,115.1625L263.1506727355687,106.79999999999998L266.54083710784914,106.40625L269.8260569571653,114.525L273.2207841347919,123.60000000000002L276.5060039841081,122.38125000000002L279.9007311617347,124.96874999999997L283.2954583393614,122.90625L286.58067818867755,115.35000000000002L289.9799681716505,114.46875L293.2651880209666,121.72500000000002L296.6599151985933,129.45L300.05464237622,124.0875L303.2303548972256,116.5875L306.62051926950596,115.95000000000002L309.90573911882217,132.60000000000002L313.3004662964488,139.4625L316.58568614576495,142.9125L319.9804133233916,144.6L323.3751405010183,140.775L326.66036035033443,137.175L330.0596503333074,133.95L333.3448701826235,141.29999999999998L336.7395973602502,147L340.1343245378768,145.53750000000002L343.2005297305719,140.2125L346.5906941028523,134.30625L349.87591395216845,137.04375L353.27064112979514,147.63750000000002L356.55586097911123,153.69375L359.9505881567379,156.4875L363.34531533436456,154.04999999999998L366.63053518368076,147.1125L370.02982516665367,144.1125L373.3150450159698,148.59374999999997L376.70977219359645,159.99375L380.10449937122314,156.93749999999997L383.1707045639182,157.10625000000002L386.56086893619863,148.6875L389.8460887855148,153.0375L393.2408159631414,162.13125L396.52603581245756,165.46875000000003L399.9207629900842,170.34375L403.3154901677109,164.32500000000002L406.60071001702704,156.91875L410,157.05" data-legend="java" style="stroke: rgb(255, 127, 14); fill: none;"></path><path class="line" d="M3.394727177626674,237.05625L6.679947026942809,221.55L10.079237009915754,226.51875L13.364456859231892,226.5L16.759184036858564,225.61875L20.153911214485237,218.7375L23.2201164071803,217.8375L26.610280779460695,215.94375L29.895500628776837,214.725L33.29022780640351,196.29375L36.57544765571964,183.58125L39.97017483334632,175.66875000000002L43.36490201097299,172.29375L46.650121860289126,178.65L50.04941184326207,169.875L53.334631692578206,160.51875L56.72935887020488,157.275L60.124086047831554,168.20624999999998L63.19029124052661,165.99375L66.58045561280701,163.875L69.86567546212315,156.86249999999998L73.26040263974983,163.125L76.54562248906596,158.73749999999998L79.94034966669264,148.98749999999998L83.3350768443193,156.7875L86.62029669363545,167.625L90.01958667660838,162.82500000000002L93.30480652592453,155.17499999999998L96.6995337035512,149.90625000000003L100.09426088117787,149.23125L103.16046607387294,150.01874999999998L106.55063044615333,150.78750000000002L109.83585029546948,149.60625L113.23057747309615,148.98749999999998L116.51579732241228,138.99375L119.91052450003896,144.54375L123.30525167766562,152.47500000000002L126.59047152698177,151.5375L129.98976150995472,151.18125L133.27498135927084,150L136.66970853689753,150.45L140.0644357145242,150.525L143.24014823552977,148.125L146.63031260781017,149.34375L149.91553245712632,148.46249999999998L153.31025963475298,149.34375L156.59547948406913,145.8375L159.9902066616958,143.19375000000002L163.38493383932246,145.06875L166.6701536886386,153.26250000000002L170.06944367161157,151.70625L173.3546635209277,147.4125L176.74939069855435,147.65625L180.14411787618104,146.83124999999998L183.21032306887608,147.69375000000002L186.6004874411565,153.65625L189.88570729047262,152.64375L193.28043446809932,149.8875L196.56565431741544,148.5L199.9603814950421,142.78125L203.3551086726688,139.03125000000003L206.6403285219849,144.35625L210.0396185049579,141.9375L213.324838354274,136.78125L216.71956553190068,133.36874999999998L220.11429270952735,135.05624999999998L223.1804979022224,134.68125L226.57066227450284,129.5625L229.85588212381893,143.025L233.25060930144565,149.83124999999998L236.53582915076174,149.00625L239.93055632838843,148.78125L243.3252835060151,149.45625L246.61050335533125,152.55L250.00979333830418,153.58124999999998L253.29501318762033,150.95624999999998L256.68974036524696,146.4375L260.08446754287365,150.1125L263.1506727355687,152.85000000000002L266.54083710784914,152.25000000000003L269.8260569571653,153L273.2207841347919,156.9L276.5060039841081,152.625L279.9007311617347,152.83124999999998L283.2954583393614,157.18125L286.58067818867755,160.18125L289.9799681716505,159.84375L293.2651880209666,150.56250000000003L296.6599151985933,149.4L300.05464237622,151.6875L303.2303548972256,159.54375L306.62051926950596,162.01875L309.90573911882217,157.25625L313.3004662964488,161.325L316.58568614576495,163.21875L319.9804133233916,167.3625L323.3751405010183,167.475L326.66036035033443,169.0125L330.0596503333074,172.3125L333.3448701826235,167.5875L336.7395973602502,166.3125L340.1343245378768,166.25625L343.2005297305719,169.125L346.5906941028523,169.55624999999998L349.87591395216845,168.91875000000002L353.27064112979514,176.13750000000002L356.55586097911123,177L359.9505881567379,177.07500000000002L363.34531533436456,176.71875L366.63053518368076,180.825L370.02982516665367,182.83125L373.3150450159698,184.74375L376.70977219359645,184.9875L380.10449937122314,191.5125L383.1707045639182,197.625L386.56086893619863,200.625L389.8460887855148,198.16875000000002L393.2408159631414,201.22500000000002L396.52603581245756,203.2875L399.9207629900842,203.34375L403.3154901677109,204L406.60071001702704,207.84375L410,207.7875" data-legend="php" style="stroke: rgb(44, 160, 44); fill: none;"></path><path class="line" d="M3.394727177626674,85.4625L6.679947026942809,48.1875L10.079237009915754,48.39374999999998L13.364456859231892,56.02499999999998L16.759184036858564,23.025000000000034L20.153911214485237,26.25L23.2201164071803,13.856249999999989L26.610280779460695,11.400000000000034L29.895500628776837,43.93124999999998L33.29022780640351,45.14999999999998L36.57544765571964,48.11250000000001L39.97017483334632,47.00625000000002L43.36490201097299,54.82500000000002L46.650121860289126,57.86250000000001L50.04941184326207,73.875L53.334631692578206,78.67499999999998L56.72935887020488,87.9375L60.124086047831554,87.75L63.19029124052661,84.54375000000002L66.58045561280701,84.75L69.86567546212315,86.9625L73.26040263974983,94.63125000000002L76.54562248906596,95.30625L79.94034966669264,96.225L83.3350768443193,105.13125000000002L86.62029669363545,102.99375L90.01958667660838,104.26875000000001L93.30480652592453,109.78125L96.6995337035512,113.71875000000003L100.09426088117787,115.5L103.16046607387294,115.875L106.55063044615333,119.54999999999998L109.83585029546948,113.98124999999999L113.23057747309615,116.64375000000001L116.51579732241228,122.49374999999998L119.91052450003896,125.475L123.30525167766562,130.63125000000002L126.59047152698177,131.175L129.98976150995472,131.11875L133.27498135927084,132.97499999999997L136.66970853689753,132.91875000000002L140.0644357145242,138.76874999999998L143.24014823552977,138.80624999999998L146.63031260781017,139.8375L149.91553245712632,140.13750000000002L153.31025963475298,139.2375L156.59547948406913,138.97500000000002L159.9902066616958,143.04375L163.38493383932246,141.69374999999997L166.6701536886386,142.425L170.06944367161157,146.60625000000002L173.3546635209277,149.73749999999998L176.74939069855435,149.53125L180.14411787618104,148.63125L183.21032306887608,147.88125000000002L186.6004874411565,149.53125L189.88570729047262,149.98125000000002L193.28043446809932,150.35625L196.56565431741544,151.125L199.9603814950421,149.1375L203.3551086726688,145.76250000000002L206.6403285219849,147.24375L210.0396185049579,146.5125L213.324838354274,147.13125L216.71956553190068,149.49375L220.11429270952735,151.01250000000002L223.1804979022224,155.53125000000003L226.57066227450284,154.01250000000002L229.85588212381893,153.76874999999998L233.25060930144565,157.2L236.53582915076174,156.7125L239.93055632838843,158.28750000000002L243.3252835060151,162.26250000000002L246.61050335533125,165.1875L250.00979333830418,167.90625L253.29501318762033,167.28750000000002L256.68974036524696,168.4875L260.08446754287365,169.89375L263.1506727355687,170.32500000000002L266.54083710784914,171.84375000000003L269.8260569571653,166.2L273.2207841347919,166.03125L276.5060039841081,165.6375L279.9007311617347,164.3625L283.2954583393614,165.16875000000002L286.58067818867755,172.5L289.9799681716505,170.79375L293.2651880209666,169.03125L296.6599151985933,173.38125L300.05464237622,174.33750000000003L303.2303548972256,174.58125L306.62051926950596,170.30625L309.90573911882217,167.64374999999998L313.3004662964488,168.31875L316.58568614576495,173.71875L319.9804133233916,169.78125L323.3751405010183,179.475L326.66036035033443,178.3875L330.0596503333074,176.39999999999998L333.3448701826235,177.43125L336.7395973602502,176.86874999999998L340.1343245378768,177.80624999999998L343.2005297305719,180.1125L346.5906941028523,184.575L349.87591395216845,180.24375L353.27064112979514,182.04375L356.55586097911123,184.05L359.9505881567379,185.1L363.34531533436456,186.84375L366.63053518368076,188.2125L370.02982516665367,192.075L373.3150450159698,192.15L376.70977219359645,195.4125L380.10449937122314,199.74375L383.1707045639182,199.10625000000002L386.56086893619863,198.5625L389.8460887855148,194.79375L393.2408159631414,199.05L396.52603581245756,196.20000000000005L399.9207629900842,193.81875L403.3154901677109,196.725L406.60071001702704,196.96875L410,200.19375" data-legend="c#" style="stroke: rgb(214, 39, 40); fill: none;"></path></g></g><g transform="translate(20, 150)"><text transform="rotate(-90)" x="-50" y="0" dy="1em" class="axis-label y-axis-label" style="text-anchor: middle; font-weight: bold;">% of Stack Overflow questions that month</text></g><g class="legend" transform="translate(530, 30)" style="font-size: 12px;"><text class="legend-title" style="font-weight: bold;">Tag</text><g class="legend-items" transform="translate(0,20)"><text y="0em" x="1em">c#</text><text y="1em" x="1em">python</text><text y="2em" x="1em">java</text><text y="3em" x="1em">php</text><circle cy="-0.25em" cx="0" r="0.4em" style="fill: rgb(214, 39, 40);"></circle><circle cy="0.75em" cx="0" r="0.4em" style="fill: rgb(31, 119, 180);"></circle><circle cy="1.75em" cx="0" r="0.4em" style="fill: rgb(255, 127, 14);"></circle><circle cy="2.75em" cx="0" r="0.4em" style="fill: rgb(44, 160, 44);"></circle></g><rect class="legend-box"></rect></g></svg>
        