
            <svg id="trend-chart" width="660" height="400" title="Stack Overflow Trends Chart" version="1.1" xmlns="http://www.w3.org/2000/svg"><g></g><g class="chart-area" transform="translate(100, 20)"><g transform="translate(0,300)" fill="none" font-size="10" font-family="sans-serif" text-anchor="middle"><path class="domain" stroke="#000" d="M0.5,6V0.5H410.5V6"></path><g class="tick" opacity="1" transform="translate(16.759184036858564,0)"><line stroke="#000" y2="6" x1="0.5" x2="0.5"></line><text fill="#000" y="9" x="0.5" dy="0.71em" style="font-size: 12px;">2009</text></g><g class="tick" opacity="1" transform="translate(56.72935887020488,0)"><line stroke="#000" y2="6" x1="0.5" x2="0.5"></line><text fill="#000" y="9" x="0.5" dy="0.71em" style="font-size: 12px;">2010</text></g><g class="tick" opacity="1" transform="translate(96.6995337035512,0)"><line stroke="#000" y2="6" x1="0.5" x2="0.5"></line><text fill="#000" y="9" x="0.5" dy="0.71em" style="font-size: 12px;">2011</text></g><g class="tick" opacity="1" transform="translate(136.66970853689753,0)"><line stroke="#000" y2="6" x1="0.5" x2="0.5"></line><text fill="#000" y="9" x="0.5" dy="0.71em" style="font-size: 12px;">2012</text></g><g class="tick" opacity="1" transform="translate(176.74939069855435,0)"><line stroke="#000" y2="6" x1="0.5" x2="0.5"></line><text fill="#000" y="9" x="0.5" dy="0.71em" style="font-size: 12px;">2013</text></g><g class="tick" opacity="1" transform="translate(216.71956553190068,0)"><line stroke="#000" y2="6" x1="0.5" x2="0.5"></line><text fill="#000" y="9" x="0.5" dy="0.71em" style="font-size: 12px;">2014</text></g><g class="tick" opacity="1" transform="translate(256.68974036524696,0)"><line stroke="#000" y2="6" x1="0.5" x2="0.5"></line><text fill="#000" y="9" x="0.5" dy="0.71em" style="font-size: 12px;">2015</text></g><g class="tick" opacity="1" transform="translate(296.6599151985933,0)"><line stroke="#000" y2="6" x1="0.5" x2="0.5"></line><text fill="#000" y="9" x="0.5" dy="0.71em" style="font-size: 12px;">2016</text></g><g class="tick" opacity="1" transform="translate(336.7395973602502,0)"><line stroke="#000" y2="6" x1="0.5" x2="0.5"></line><text fill="#000" y="9" x="0.5" dy="0.71em" style="font-size: 12px;">2017</text></g><g class="tick" opacity="1" transform="translate(376.70977219359645,0)"><line stroke="#000" y2="6" x1="0.5" x2="0.5"></line><text fill="#000" y="9" x="0.5" dy="0.71em" style="font-size: 12px;">2018</text></g></g><g class="grid-lines" transform="translate(0,300)" fill="none" font-size="10" font-family="sans-serif" text-anchor="middle"><path class="domain" stroke="#000" d="M0.5,-300V0.5H410.5V-300"></path><g class="tick" opacity="1" transform="translate(16.759184036858564,0)"><line stroke="#000" y2="-300" x1="0.5" x2="0.5" style="stroke: #ccc; fill: none;"></line></g><g class="tick" opacity="1" transform="translate(56.72935887020488,0)"><line stroke="#000" y2="-300" x1="0.5" x2="0.5" style="stroke: #ccc; fill: none;"></line></g><g class="tick" opacity="1" transform="translate(96.6995337035512,0)"><line stroke="#000" y2="-300" x1="0.5" x2="0.5" style="stroke: #ccc; fill: none;"></line></g><g class="tick" opacity="1" transform="translate(136.66970853689753,0)"><line stroke="#000" y2="-300" x1="0.5" x2="0.5" style="stroke: #ccc; fill: none;"></line></g><g class="tick" opacity="1" transform="translate(176.74939069855435,0)"><line stroke="#000" y2="-300" x1="0.5" x2="0.5" style="stroke: #ccc; fill: none;"></line></g><g class="tick" opacity="1" transform="translate(216.71956553190068,0)"><line stroke="#000" y2="-300" x1="0.5" x2="0.5" style="stroke: #ccc; fill: none;"></line></g><g class="tick" opacity="1" transform="translate(256.68974036524696,0)"><line stroke="#000" y2="-300" x1="0.5" x2="0.5" style="stroke: #ccc; fill: none;"></line></g><g class="tick" opacity="1" transform="translate(296.6599151985933,0)"><line stroke="#000" y2="-300" x1="0.5" x2="0.5" style="stroke: #ccc; fill: none;"></line></g><g class="tick" opacity="1" transform="translate(336.7395973602502,0)"><line stroke="#000" y2="-300" x1="0.5" x2="0.5" style="stroke: #ccc; fill: none;"></line></g><g class="tick" opacity="1" transform="translate(376.70977219359645,0)"><line stroke="#000" y2="-300" x1="0.5" x2="0.5" style="stroke: #ccc; fill: none;"></line></g></g><text x="205" y="360" class="axis-label x-axis-label" style="text-anchor: middle; font-weight: bold;">Year</text><g fill="none" font-size="10" font-family="sans-serif" text-anchor="end"><path class="domain" stroke="#000" d="M-6,300.5H0.5V0.5H-6"></path><g class="tick" opacity="1" transform="translate(0,300)"><line stroke="#000" x2="-6" y1="0.5" y2="0.5"></line><text fill="#000" x="-9" y="0.5" dy="0.32em" style="font-size: 12px;">0.00%</text></g><g class="tick" opacity="1" transform="translate(0,275)"><line stroke="#000" x2="-6" y1="0.5" y2="0.5"></line><text fill="#000" x="-9" y="0.5" dy="0.32em" style="font-size: 12px;">1.00%</text></g><g class="tick" opacity="1" transform="translate(0,250)"><line stroke="#000" x2="-6" y1="0.5" y2="0.5"></line><text fill="#000" x="-9" y="0.5" dy="0.32em" style="font-size: 12px;">2.00%</text></g><g class="tick" opacity="1" transform="translate(0,225)"><line stroke="#000" x2="-6" y1="0.5" y2="0.5"></line><text fill="#000" x="-9" y="0.5" dy="0.32em" style="font-size: 12px;">3.00%</text></g><g class="tick" opacity="1" transform="translate(0,200)"><line stroke="#000" x2="-6" y1="0.5" y2="0.5"></line><text fill="#000" x="-9" y="0.5" dy="0.32em" style="font-size: 12px;">4.00%</text></g><g class="tick" opacity="1" transform="translate(0,175)"><line stroke="#000" x2="-6" y1="0.5" y2="0.5"></line><text fill="#000" x="-9" y="0.5" dy="0.32em" style="font-size: 12px;">5.00%</text></g><g class="tick" opacity="1" transform="translate(0,150)"><line stroke="#000" x2="-6" y1="0.5" y2="0.5"></line><text fill="#000" x="-9" y="0.5" dy="0.32em" style="font-size: 12px;">6.00%</text></g><g class="tick" opacity="1" transform="translate(0,125)"><line stroke="#000" x2="-6" y1="0.5" y2="0.5"></line><text fill="#000" x="-9" y="0.5" dy="0.32em" style="font-size: 12px;">7.00%</text></g><g class="tick" opacity="1" transform="translate(0,99.99999999999997)"><line stroke="#000" x2="-6" y1="0.5" y2="0.5"></line><text fill="#000" x="-9" y="0.5" dy="0.32em" style="font-size: 12px;">8.00%</text></g><g class="tick" opacity="1" transform="translate(0,75)"><line stroke="#000" x2="-6" y1="0.5" y2="0.5"></line><text fill="#000" x="-9" y="0.5" dy="0.32em" style="font-size: 12px;">9.00%</text></g><g class="tick" opacity="1" transform="translate(0,50)"><line stroke="#000" x2="-6" y1="0.5" y2="0.5"></line><text fill="#000" x="-9" y="0.5" dy="0.32em" style="font-size: 12px;">10.00%</text></g><g class="tick" opacity="1" transform="translate(0,25)"><line stroke="#000" x2="-6" y1="0.5" y2="0.5"></line><text fill="#000" x="-9" y="0.5" dy="0.32em" style="font-size: 12px;">11.00%</text></g><g class="tick" opacity="1" transform="translate(0,0)"><line stroke="#000" x2="-6" y1="0.5" y2="0.5"></line><text fill="#000" x="-9" y="0.5" dy="0.32em" style="font-size: 12px;">12.00%</text></g></g><g class="grid-lines" fill="none" font-size="10" font-family="sans-serif" text-anchor="end"><path class="domain" stroke="#000" d="M410,300.5H0.5V0.5H410"></path><g class="tick" opacity="1" transform="translate(0,300)"><line stroke="#000" x2="410" y1="0.5" y2="0.5" style="stroke: #ccc; fill: none;"></line></g><g class="tick" opacity="1" transform="translate(0,275)"><line stroke="#000" x2="410" y1="0.5" y2="0.5" style="stroke: #ccc; fill: none;"></line></g><g class="tick" opacity="1" transform="translate(0,250)"><line stroke="#000" x2="410" y1="0.5" y2="0.5" style="stroke: #ccc; fill: none;"></line></g><g class="tick" opacity="1" transform="translate(0,225)"><line stroke="#000" x2="410" y1="0.5" y2="0.5" style="stroke: #ccc; fill: none;"></line></g><g class="tick" opacity="1" transform="translate(0,200)"><line stroke="#000" x2="410" y1="0.5" y2="0.5" style="stroke: #ccc; fill: none;"></line></g><g class="tick" opacity="1" transform="translate(0,175)"><line stroke="#000" x2="410" y1="0.5" y2="0.5" style="stroke: #ccc; fill: none;"></line></g><g class="tick" opacity="1" transform="translate(0,150)"><line stroke="#000" x2="410" y1="0.5" y2="0.5" style="stroke: #ccc; fill: none;"></line></g><g class="tick" opacity="1" transform="translate(0,125)"><line stroke="#000" x2="410" y1="0.5" y2="0.5" style="stroke: #ccc; fill: none;"></line></g><g class="tick" opacity="1" transform="translate(0,99.99999999999997)"><line stroke="#000" x2="410" y1="0.5" y2="0.5" style="stroke: #ccc; fill: none;"></line></g><g class="tick" opacity="1" transform="translate(0,75)"><line stroke="#000" x2="410" y1="0.5" y2="0.5" style="stroke: #ccc; fill: none;"></line></g><g class="tick" opacity="1" transform="translate(0,50)"><line stroke="#000" x2="410" y1="0.5" y2="0.5" style="stroke: #ccc; fill: none;"></line></g><g class="tick" opacity="1" transform="translate(0,25)"><line stroke="#000" x2="410" y1="0.5" y2="0.5" style="stroke: #ccc; fill: none;"></line></g><g class="tick" opacity="1" transform="translate(0,0)"><line stroke="#000" x2="410" y1="0.5" y2="0.5" style="stroke: #ccc; fill: none;"></line></g></g><g class="lines"><path class="line" d="M3.394727177626674,205.47499999999997L6.679947026942809,213.625L10.079237009915754,212.125L13.364456859231892,209.95L16.759184036858564,201.77499999999998L20.153911214485237,211.04999999999998L23.2201164071803,207.375L26.610280779460695,211.075L29.895500628776837,203.77499999999998L33.29022780640351,208.525L36.57544765571964,211.175L39.97017483334632,213.6L43.36490201097299,212.27499999999998L46.650121860289126,202.825L50.04941184326207,199.47500000000002L53.334631692578206,195.55L56.72935887020488,192.2L60.124086047831554,196.275L63.19029124052661,201.425L66.58045561280701,209.925L69.86567546212315,203.89999999999998L73.26040263974983,201.75L76.54562248906596,193.875L79.94034966669264,202.7L83.3350768443193,208.6L86.62029669363545,196.10000000000002L90.01958667660838,206.775L93.30480652592453,211.325L96.6995337035512,209.89999999999998L100.09426088117787,210.075L103.16046607387294,208.02499999999998L106.55063044615333,213.5L109.83585029546948,213.14999999999998L113.23057747309615,213.45L116.51579732241228,209.75L119.91052450003896,211.6L123.30525167766562,214.875L126.59047152698177,211.625L129.98976150995472,212.02499999999998L133.27498135927084,213.7L136.66970853689753,210.4L140.0644357145242,210.575L143.24014823552977,207.075L146.63031260781017,205.85L149.91553245712632,206.3L153.31025963475298,200.52499999999998L156.59547948406913,200.675L159.9902066616958,197.7L163.38493383932246,201.75L166.6701536886386,198.875L170.06944367161157,193.40000000000003L173.3546635209277,194.925L176.74939069855435,197.05L180.14411787618104,191.875L183.21032306887608,191.75L186.6004874411565,185.975L189.88570729047262,184.35L193.28043446809932,181.77499999999998L196.56565431741544,179.97499999999997L199.9603814950421,184.95000000000002L203.3551086726688,181.275L206.6403285219849,172.875L210.0396185049579,167.125L213.324838354274,173.85000000000002L216.71956553190068,171.6L220.11429270952735,170.175L223.1804979022224,164.52499999999998L226.57066227450284,163.475L229.85588212381893,170.5L233.25060930144565,165.04999999999998L236.53582915076174,161.775L239.93055632838843,162.72500000000002L243.3252835060151,169.67499999999998L246.61050335533125,163.27499999999998L250.00979333830418,158.225L253.29501318762033,156.35L256.68974036524696,155.95L260.08446754287365,150.475L263.1506727355687,148.875L266.54083710784914,150.875L269.8260569571653,150.7L273.2207841347919,144.64999999999998L276.5060039841081,144.12499999999997L279.9007311617347,146.89999999999998L283.2954583393614,147.45000000000002L286.58067818867755,134.25L289.9799681716505,129.2L293.2651880209666,133.125L296.6599151985933,131.42499999999998L300.05464237622,126.225L303.2303548972256,127.39999999999998L306.62051926950596,128.175L309.90573911882217,128.775L313.3004662964488,126.80000000000001L316.58568614576495,120.35L319.9804133233916,124.12500000000003L323.3751405010183,121.975L326.66036035033443,109.32499999999999L330.0596503333074,99.64999999999995L333.3448701826235,101.20000000000002L336.7395973602502,100.19999999999999L340.1343245378768,91.30000000000004L343.2005297305719,89.625L346.5906941028523,83.775L349.87591395216845,85.74999999999997L353.27064112979514,77.85000000000002L356.55586097911123,67.44999999999993L359.9505881567379,70.82499999999999L363.34531533436456,64.69999999999999L366.63053518368076,53.849999999999966L370.02982516665367,52.17500000000001L373.3150450159698,53.72499999999994L376.70977219359645,60.07499999999999L380.10449937122314,47.19999999999999L383.1707045639182,53.599999999999994L386.56086893619863,50.799999999999955L389.8460887855148,53.224999999999966L393.2408159631414,43.174999999999955L396.52603581245756,35.64999999999998L399.9207629900842,36.17500000000001L403.3154901677109,39.05000000000001L406.60071001702704,33.64999999999998L410,17.649999999999977" data-legend="python" style="stroke: rgb(31, 119, 180); fill: none;"></path><path class="line" d="M3.394727177626674,298.975L6.679947026942809,300L10.079237009915754,299.825L13.364456859231892,299.8L16.759184036858564,298.775L20.153911214485237,298.75L23.2201164071803,299.525L26.610280779460695,298.625L29.895500628776837,299.825L33.29022780640351,299.575L36.57544765571964,296.125L39.97017483334632,296.45L43.36490201097299,289.575L46.650121860289126,295.025L50.04941184326207,293.95L53.334631692578206,294.75L56.72935887020488,294.825L60.124086047831554,293.25L63.19029124052661,293.4L66.58045561280701,292.075L69.86567546212315,293.375L73.26040263974983,292.1L76.54562248906596,290.425L79.94034966669264,288.975L83.3350768443193,290.45L86.62029669363545,291.675L90.01958667660838,291.4L93.30480652592453,292.075L96.6995337035512,292.25L100.09426088117787,290.425L103.16046607387294,289.675L106.55063044615333,287.75L109.83585029546948,289.5L113.23057747309615,288.975L116.51579732241228,288.9L119.91052450003896,286.5L123.30525167766562,285.25L126.59047152698177,284.925L129.98976150995472,286.25L133.27498135927084,285.4L136.66970853689753,285.4L140.0644357145242,283.875L143.24014823552977,283.65L146.63031260781017,283.875L149.91553245712632,283.9L153.31025963475298,281.7L156.59547948406913,280.575L159.9902066616958,281L163.38493383932246,280.25L166.6701536886386,279.15L170.06944367161157,277.575L173.3546635209277,277.8L176.74939069855435,276.375L180.14411787618104,273.3L183.21032306887608,273.825L186.6004874411565,273.575L189.88570729047262,273.625L193.28043446809932,272.425L196.56565431741544,272.55L199.9603814950421,272.175L203.3551086726688,274.45L206.6403285219849,271.95L210.0396185049579,269.45L213.324838354274,271.625L216.71956553190068,269.325L220.11429270952735,265.775L223.1804979022224,266.625L226.57066227450284,265.4L229.85588212381893,263.875L233.25060930144565,263.775L236.53582915076174,263.35L239.93055632838843,262.7L243.3252835060151,264.8L246.61050335533125,260.375L250.00979333830418,259.95L253.29501318762033,262.575L256.68974036524696,259.95L260.08446754287365,256.425L263.1506727355687,253.675L266.54083710784914,256.75L269.8260569571653,254.475L273.2207841347919,254.92499999999998L276.5060039841081,249.725L279.9007311617347,252.425L283.2954583393614,253.725L286.58067818867755,251.15L289.9799681716505,250.9L293.2651880209666,254.45L296.6599151985933,251.7L300.05464237622,252.775L303.2303548972256,250.375L306.62051926950596,248L309.90573911882217,250.45L313.3004662964488,248.3L316.58568614576495,247.65L319.9804133233916,248.5L323.3751405010183,252.5L326.66036035033443,246.64999999999998L330.0596503333074,249.8L333.3448701826235,251.975L336.7395973602502,251.1L340.1343245378768,248.1L343.2005297305719,243.55L346.5906941028523,241.175L349.87591395216845,242.875L353.27064112979514,238.275L356.55586097911123,237.15L359.9505881567379,236.325L363.34531533436456,235.825L366.63053518368076,234.125L370.02982516665367,234.075L373.3150450159698,239.5L376.70977219359645,238.1L380.10449937122314,230.675L383.1707045639182,230.325L386.56086893619863,230.975L389.8460887855148,233.89999999999998L393.2408159631414,231.52499999999998L396.52603581245756,234.5L399.9207629900842,238.8L403.3154901677109,238.175L406.60071001702704,236.05L410,235.075" data-legend="r" style="stroke: rgb(255, 127, 14); fill: none;"></path><path class="line" d="M3.394727177626674,300L6.679947026942809,300L10.079237009915754,300L13.364456859231892,300L16.759184036858564,300L20.153911214485237,300L23.2201164071803,300L26.610280779460695,300L29.895500628776837,300L33.29022780640351,300L36.57544765571964,300L39.97017483334632,300L43.36490201097299,300L46.650121860289126,300L50.04941184326207,300L53.334631692578206,300L56.72935887020488,300L60.124086047831554,300L63.19029124052661,300L66.58045561280701,300L69.86567546212315,300L73.26040263974983,300L76.54562248906596,300L79.94034966669264,300L83.3350768443193,300L86.62029669363545,300L90.01958667660838,300L93.30480652592453,300L96.6995337035512,300L100.09426088117787,300L103.16046607387294,300L106.55063044615333,299.95L109.83585029546948,300L113.23057747309615,300L116.51579732241228,300L119.91052450003896,300L123.30525167766562,300L126.59047152698177,299.925L129.98976150995472,299.975L133.27498135927084,300L136.66970853689753,299.875L140.0644357145242,299.925L143.24014823552977,299.45L146.63031260781017,299.525L149.91553245712632,299.2L153.31025963475298,299.075L156.59547948406913,298.875L159.9902066616958,298.475L163.38493383932246,298.275L166.6701536886386,298.325L170.06944367161157,298.025L173.3546635209277,297.775L176.74939069855435,297.575L180.14411787618104,297.05L183.21032306887608,297.575L186.6004874411565,297.3L189.88570729047262,296.675L193.28043446809932,296.2L196.56565431741544,296L199.9603814950421,295.925L203.3551086726688,296.425L206.6403285219849,295.225L210.0396185049579,295.075L213.324838354274,295.075L216.71956553190068,294.15L220.11429270952735,294.7L223.1804979022224,293.775L226.57066227450284,293.8L229.85588212381893,293.575L233.25060930144565,293.05L236.53582915076174,293.3L239.93055632838843,292.8L243.3252835060151,292.775L246.61050335533125,293.1L250.00979333830418,292.425L253.29501318762033,293.425L256.68974036524696,292.85L260.08446754287365,292.175L263.1506727355687,291.275L266.54083710784914,290.85L269.8260569571653,291.125L273.2207841347919,289.9L276.5060039841081,289.15L279.9007311617347,289.75L283.2954583393614,288.875L286.58067818867755,287.525L289.9799681716505,287.6L293.2651880209666,287.225L296.6599151985933,287.625L300.05464237622,286.45L303.2303548972256,286.4L306.62051926950596,285.025L309.90573911882217,283.4L313.3004662964488,282.9L316.58568614576495,279.525L319.9804133233916,281.4L323.3751405010183,281.15L326.66036035033443,281.1L330.0596503333074,278.925L333.3448701826235,278.475L336.7395973602502,278.625L340.1343245378768,278.05L343.2005297305719,275.8L346.5906941028523,274.675L349.87591395216845,274.7L353.27064112979514,272.675L356.55586097911123,271.575L359.9505881567379,270.35L363.34531533436456,270.225L366.63053518368076,268.5L370.02982516665367,268.875L373.3150450159698,270.2L376.70977219359645,269L380.10449937122314,267.525L383.1707045639182,264.925L386.56086893619863,265.55L389.8460887855148,265.6L393.2408159631414,261.05L396.52603581245756,257.85L399.9207629900842,259.1L403.3154901677109,260.5L406.60071001702704,259.4L410,258.125" data-legend="pandas" style="stroke: rgb(44, 160, 44); fill: none;"></path></g></g><g transform="translate(20, 150)"><text transform="rotate(-90)" x="-50" y="0" dy="1em" class="axis-label y-axis-label" style="text-anchor: middle; font-weight: bold;">% of Stack Overflow questions that month</text></g><g class="legend" transform="translate(530, 30)" style="font-size: 12px;"><text class="legend-title" style="font-weight: bold;">Tag</text><g class="legend-items" transform="translate(0,20)"><text y="0em" x="1em">python</text><text y="1em" x="1em">r</text><text y="2em" x="1em">pandas</text><circle cy="-0.25em" cx="0" r="0.4em" style="fill: rgb(31, 119, 180);"></circle><circle cy="0.75em" cx="0" r="0.4em" style="fill: rgb(255, 127, 14);"></circle><circle cy="1.75em" cx="0" r="0.4em" style="fill: rgb(44, 160, 44);"></circle></g><rect class="legend-box"></rect></g></svg>
        