
                <svg id="trend-chart" width="660" height="400" title="Stack Overflow Trends Chart" version="1.1" xmlns="http://www.w3.org/2000/svg"><g></g><g class="chart-area" transform="translate(100, 20)"><g transform="translate(0,300)" fill="none" font-size="10" font-family="sans-serif" text-anchor="middle"><path class="domain" stroke="#000" d="M0.5,6V0.5H410.5V6"></path><g class="tick" opacity="1" transform="translate(17.181567177802116,0)"><line stroke="#000" y2="6" x1="0.5" x2="0.5"></line><text fill="#000" y="9" x="0.5" dy="0.71em" style="font-size: 12px;">2009</text></g><g class="tick" opacity="1" transform="translate(58.15911372763782,0)"><line stroke="#000" y2="6" x1="0.5" x2="0.5"></line><text fill="#000" y="9" x="0.5" dy="0.71em" style="font-size: 12px;">2010</text></g><g class="tick" opacity="1" transform="translate(99.13666027747352,0)"><line stroke="#000" y2="6" x1="0.5" x2="0.5"></line><text fill="#000" y="9" x="0.5" dy="0.71em" style="font-size: 12px;">2011</text></g><g class="tick" opacity="1" transform="translate(140.11420682730923,0)"><line stroke="#000" y2="6" x1="0.5" x2="0.5"></line><text fill="#000" y="9" x="0.5" dy="0.71em" style="font-size: 12px;">2012</text></g><g class="tick" opacity="1" transform="translate(181.20402062796643,0)"><line stroke="#000" y2="6" x1="0.5" x2="0.5"></line><text fill="#000" y="9" x="0.5" dy="0.71em" style="font-size: 12px;">2013</text></g><g class="tick" opacity="1" transform="translate(222.18156717780212,0)"><line stroke="#000" y2="6" x1="0.5" x2="0.5"></line><text fill="#000" y="9" x="0.5" dy="0.71em" style="font-size: 12px;">2014</text></g><g class="tick" opacity="1" transform="translate(263.1591137276378,0)"><line stroke="#000" y2="6" x1="0.5" x2="0.5"></line><text fill="#000" y="9" x="0.5" dy="0.71em" style="font-size: 12px;">2015</text></g><g class="tick" opacity="1" transform="translate(304.13666027747354,0)"><line stroke="#000" y2="6" x1="0.5" x2="0.5"></line><text fill="#000" y="9" x="0.5" dy="0.71em" style="font-size: 12px;">2016</text></g><g class="tick" opacity="1" transform="translate(345.2264740781307,0)"><line stroke="#000" y2="6" x1="0.5" x2="0.5"></line><text fill="#000" y="9" x="0.5" dy="0.71em" style="font-size: 12px;">2017</text></g><g class="tick" opacity="1" transform="translate(386.2040206279664,0)"><line stroke="#000" y2="6" x1="0.5" x2="0.5"></line><text fill="#000" y="9" x="0.5" dy="0.71em" style="font-size: 12px;">2018</text></g></g><g class="grid-lines" transform="translate(0,300)" fill="none" font-size="10" font-family="sans-serif" text-anchor="middle"><path class="domain" stroke="#000" d="M0.5,-300V0.5H410.5V-300"></path><g class="tick" opacity="1" transform="translate(17.181567177802116,0)"><line stroke="#000" y2="-300" x1="0.5" x2="0.5" style="stroke: #ccc; fill: none;"></line></g><g class="tick" opacity="1" transform="translate(58.15911372763782,0)"><line stroke="#000" y2="-300" x1="0.5" x2="0.5" style="stroke: #ccc; fill: none;"></line></g><g class="tick" opacity="1" transform="translate(99.13666027747352,0)"><line stroke="#000" y2="-300" x1="0.5" x2="0.5" style="stroke: #ccc; fill: none;"></line></g><g class="tick" opacity="1" transform="translate(140.11420682730923,0)"><line stroke="#000" y2="-300" x1="0.5" x2="0.5" style="stroke: #ccc; fill: none;"></line></g><g class="tick" opacity="1" transform="translate(181.20402062796643,0)"><line stroke="#000" y2="-300" x1="0.5" x2="0.5" style="stroke: #ccc; fill: none;"></line></g><g class="tick" opacity="1" transform="translate(222.18156717780212,0)"><line stroke="#000" y2="-300" x1="0.5" x2="0.5" style="stroke: #ccc; fill: none;"></line></g><g class="tick" opacity="1" transform="translate(263.1591137276378,0)"><line stroke="#000" y2="-300" x1="0.5" x2="0.5" style="stroke: #ccc; fill: none;"></line></g><g class="tick" opacity="1" transform="translate(304.13666027747354,0)"><line stroke="#000" y2="-300" x1="0.5" x2="0.5" style="stroke: #ccc; fill: none;"></line></g><g class="tick" opacity="1" transform="translate(345.2264740781307,0)"><line stroke="#000" y2="-300" x1="0.5" x2="0.5" style="stroke: #ccc; fill: none;"></line></g><g class="tick" opacity="1" transform="translate(386.2040206279664,0)"><line stroke="#000" y2="-300" x1="0.5" x2="0.5" style="stroke: #ccc; fill: none;"></line></g></g><text x="205" y="360" class="axis-label x-axis-label" style="text-anchor: middle; font-weight: bold;">Year</text><g fill="none" font-size="10" font-family="sans-serif" text-anchor="end"><path class="domain" stroke="#000" d="M-6,300.5H0.5V0.5H-6"></path><g class="tick" opacity="1" transform="translate(0,300)"><line stroke="#000" x2="-6" y1="0.5" y2="0.5"></line><text fill="#000" x="-9" y="0.5" dy="0.32em" style="font-size: 12px;">0.00%</text></g><g class="tick" opacity="1" transform="translate(0,272.72727272727275)"><line stroke="#000" x2="-6" y1="0.5" y2="0.5"></line><text fill="#000" x="-9" y="0.5" dy="0.32em" style="font-size: 12px;">1.00%</text></g><g class="tick" opacity="1" transform="translate(0,245.45454545454544)"><line stroke="#000" x2="-6" y1="0.5" y2="0.5"></line><text fill="#000" x="-9" y="0.5" dy="0.32em" style="font-size: 12px;">2.00%</text></g><g class="tick" opacity="1" transform="translate(0,218.1818181818182)"><line stroke="#000" x2="-6" y1="0.5" y2="0.5"></line><text fill="#000" x="-9" y="0.5" dy="0.32em" style="font-size: 12px;">3.00%</text></g><g class="tick" opacity="1" transform="translate(0,190.9090909090909)"><line stroke="#000" x2="-6" y1="0.5" y2="0.5"></line><text fill="#000" x="-9" y="0.5" dy="0.32em" style="font-size: 12px;">4.00%</text></g><g class="tick" opacity="1" transform="translate(0,163.63636363636363)"><line stroke="#000" x2="-6" y1="0.5" y2="0.5"></line><text fill="#000" x="-9" y="0.5" dy="0.32em" style="font-size: 12px;">5.00%</text></g><g class="tick" opacity="1" transform="translate(0,136.36363636363637)"><line stroke="#000" x2="-6" y1="0.5" y2="0.5"></line><text fill="#000" x="-9" y="0.5" dy="0.32em" style="font-size: 12px;">6.00%</text></g><g class="tick" opacity="1" transform="translate(0,109.09090909090907)"><line stroke="#000" x2="-6" y1="0.5" y2="0.5"></line><text fill="#000" x="-9" y="0.5" dy="0.32em" style="font-size: 12px;">7.00%</text></g><g class="tick" opacity="1" transform="translate(0,81.81818181818181)"><line stroke="#000" x2="-6" y1="0.5" y2="0.5"></line><text fill="#000" x="-9" y="0.5" dy="0.32em" style="font-size: 12px;">8.00%</text></g><g class="tick" opacity="1" transform="translate(0,54.54545454545456)"><line stroke="#000" x2="-6" y1="0.5" y2="0.5"></line><text fill="#000" x="-9" y="0.5" dy="0.32em" style="font-size: 12px;">9.00%</text></g><g class="tick" opacity="1" transform="translate(0,27.272727272727252)"><line stroke="#000" x2="-6" y1="0.5" y2="0.5"></line><text fill="#000" x="-9" y="0.5" dy="0.32em" style="font-size: 12px;">10.00%</text></g><g class="tick" opacity="1" transform="translate(0,0)"><line stroke="#000" x2="-6" y1="0.5" y2="0.5"></line><text fill="#000" x="-9" y="0.5" dy="0.32em" style="font-size: 12px;">11.00%</text></g></g><g class="grid-lines" fill="none" font-size="10" font-family="sans-serif" text-anchor="end"><path class="domain" stroke="#000" d="M410,300.5H0.5V0.5H410"></path><g class="tick" opacity="1" transform="translate(0,300)"><line stroke="#000" x2="410" y1="0.5" y2="0.5" style="stroke: #ccc; fill: none;"></line></g><g class="tick" opacity="1" transform="translate(0,272.72727272727275)"><line stroke="#000" x2="410" y1="0.5" y2="0.5" style="stroke: #ccc; fill: none;"></line></g><g class="tick" opacity="1" transform="translate(0,245.45454545454544)"><line stroke="#000" x2="410" y1="0.5" y2="0.5" style="stroke: #ccc; fill: none;"></line></g><g class="tick" opacity="1" transform="translate(0,218.1818181818182)"><line stroke="#000" x2="410" y1="0.5" y2="0.5" style="stroke: #ccc; fill: none;"></line></g><g class="tick" opacity="1" transform="translate(0,190.9090909090909)"><line stroke="#000" x2="410" y1="0.5" y2="0.5" style="stroke: #ccc; fill: none;"></line></g><g class="tick" opacity="1" transform="translate(0,163.63636363636363)"><line stroke="#000" x2="410" y1="0.5" y2="0.5" style="stroke: #ccc; fill: none;"></line></g><g class="tick" opacity="1" transform="translate(0,136.36363636363637)"><line stroke="#000" x2="410" y1="0.5" y2="0.5" style="stroke: #ccc; fill: none;"></line></g><g class="tick" opacity="1" transform="translate(0,109.09090909090907)"><line stroke="#000" x2="410" y1="0.5" y2="0.5" style="stroke: #ccc; fill: none;"></line></g><g class="tick" opacity="1" transform="translate(0,81.81818181818181)"><line stroke="#000" x2="410" y1="0.5" y2="0.5" style="stroke: #ccc; fill: none;"></line></g><g class="tick" opacity="1" transform="translate(0,54.54545454545456)"><line stroke="#000" x2="410" y1="0.5" y2="0.5" style="stroke: #ccc; fill: none;"></line></g><g class="tick" opacity="1" transform="translate(0,27.272727272727252)"><line stroke="#000" x2="410" y1="0.5" y2="0.5" style="stroke: #ccc; fill: none;"></line></g><g class="tick" opacity="1" transform="translate(0,0)"><line stroke="#000" x2="410" y1="0.5" y2="0.5" style="stroke: #ccc; fill: none;"></line></g></g><g class="lines"><path class="line" d="M3.480284775465498,298.8818181818182L6.848302300109529,300L10.333264877692589,299.8090909090909L13.70128240233662,299.7818181818182L17.181567177802116,298.6636363636364L20.661851953267618,298.6363636363636L23.80533497626871,299.4818181818182L27.280941949616647,298.5L30.648959474260682,299.8090909090909L34.12924424972618,299.53636363636366L37.49726177437021,295.77272727272725L40.97754654983571,296.1272727272727L44.45783132530121,288.6545454545454L47.82584884994524,294.57272727272726L51.3108114275283,293.4L54.67882895217233,294.3L58.15911372763782,294.3545454545455L61.63939850310332,292.6363636363636L64.78288152610442,292.8L68.25848849945235,291.3545454545455L71.62650602409639,292.77272727272725L75.10679079956188,291.3818181818182L78.47480832420591,289.55454545454546L81.95509309967142,287.9727272727273L85.43537787513691,289.58181818181816L88.80339539978094,290.94545454545454L92.288357977364,290.53636363636366L95.65637550200803,291.3L99.13666027747352,291.54545454545456L102.61694505293902,289.58181818181816L105.76042807594013,288.73636363636365L109.23603504928806,286.6363636363636L112.60405257393208,288.54545454545456L116.0843373493976,287.9727272727273L119.45235487404162,287.8909090909091L122.93263964950711,285.3L126.41292442497263,283.8818181818182L129.78094194961665,283.5L133.26590452719972,285L136.63392205184374,284.07272727272726L140.11420682730923,284.04545454545456L143.59449160277475,282.43636363636364L146.8502418765973,282.1909090909091L150.32584884994523,282.4090909090909L153.69386637458928,282.46363636363634L157.17415115005477,280.03636363636366L160.5421686746988,278.8090909090909L164.0224534501643,279.27272727272725L167.5027382256298,278.45454545454544L170.87075575027382,277.25454545454545L174.3557183278569,275.53636363636366L177.7237358525009,275.78181818181815L181.20402062796643,274.25454545454545L184.68430540343192,270.8727272727273L187.82778842643302,271.44545454545454L191.30339539978095,271.1727272727273L194.67141292442497,271.22727272727275L198.15169769989046,269.8909090909091L201.5197152245345,270.05454545454546L205,269.6454545454545L208.4802847754655,272.1272727272727L211.84830230010954,269.3727272727273L215.33326487769259,266.7L218.70128240233663,269.04545454545456L222.18156717780212,266.53636363636366L225.66185195326761,262.6636363636364L228.8053349762687,263.5909090909091L232.28094194961665,262.2818181818182L235.6489594742607,260.6181818181818L239.12924424972618,260.5090909090909L242.49726177437023,260.0181818181818L245.97754654983572,259.3090909090909L249.4578313253012,261.6272727272727L252.82584884994526,256.8L256.3108114275283,256.3090909090909L259.67882895217235,259.2L263.1591137276378,256.2818181818182L266.63939850310334,252.51818181818183L269.7828815261044,249.51818181818183L273.25848849945237,252.84545454545454L276.6265060240964,250.36363636363637L280.1067907995619,250.8272727272727L283.4748083242059,245.15454545454543L286.9550930996714,248.12727272727273L290.4353778751369,249.54545454545456L293.8033953997809,246.73636363636365L297.288357977364,246.46363636363634L300.656375502008,250.33636363636364L304.13666027747354,247.3090909090909L307.61694505293906,248.5090909090909L310.8726953267616,245.86363636363637L314.34830230010954,243.27272727272728L317.71631982475355,245.97272727272727L321.1966046002191,243.62727272727273L324.5646221248631,242.9181818181818L328.0449069003286,243.84545454545454L331.5251916757941,248.2090909090909L334.8932092004381,241.8272727272727L338.37817177802117,245.23636363636365L341.74618930266524,247.63636363636363L345.2264740781307,246.6818181818182L348.7067588535962,243.4090909090909L351.8502418765973,238.44545454545454L355.32584884994526,235.88181818181818L358.6938663745893,237.62727272727273L362.17415115005474,232.74545454545455L365.5421686746988,231.4909090909091L369.0224534501643,230.5909090909091L372.5027382256298,232.03636363636363L375.8707557502738,230.5909090909091L379.3557183278569,229.77272727272728L382.7237358525009,234.4090909090909L386.2040206279664,232.58181818181816L389.68430540343195,224.48181818181817L392.82778842643296,224.1818181818182L396.3033953997809,224.8090909090909L399.671412924425,228.08181818181816L403.15169769989046,225.6L406.5197152245345,228.62727272727273L410,235.03636363636363" data-legend="r" style="stroke: rgb(31, 119, 180); fill: none;"></path><path class="line" d="M3.480284775465498,196.93636363636364L6.848302300109529,205.74545454545455L10.333264877692589,204.21818181818182L13.70128240233662,201.89999999999998L17.181567177802116,192.95454545454544L20.661851953267618,203.04545454545456L23.80533497626871,199.03636363636366L27.280941949616647,203.1L30.648959474260682,195.10909090909092L34.12924424972618,200.3181818181818L37.49726177437021,203.1818181818182L40.97754654983571,205.74545454545455L44.45783132530121,204.38181818181818L47.82584884994524,194.07272727272726L51.3108114275283,190.39090909090913L54.67882895217233,186L58.15911372763782,182.5090909090909L61.63939850310332,186.98181818181817L64.78288152610442,192.43636363636364L68.25848849945235,201.76363636363635L71.62650602409639,195.08181818181816L75.10679079956188,192.73636363636365L78.47480832420591,184.06363636363636L81.95509309967142,193.8272727272727L85.43537787513691,200.4L88.80339539978094,186.7090909090909L92.288357977364,198.35454545454547L95.65637550200803,203.2909090909091L99.13666027747352,201.73636363636365L102.61694505293902,201.92727272727274L105.76042807594013,199.71818181818185L109.23603504928806,205.5818181818182L112.60405257393208,205.22727272727272L116.0843373493976,205.63636363636363L119.45235487404162,201.5727272727273L122.93263964950711,203.53636363636366L126.41292442497263,207.2181818181818L129.78094194961665,203.5909090909091L133.26590452719972,204.05454545454546L136.63392205184374,205.88181818181818L140.11420682730923,202.28181818181815L143.59449160277475,202.44545454545454L146.8502418765973,198.60000000000002L150.32584884994523,197.3181818181818L153.69386637458928,197.8090909090909L157.17415115005477,191.5090909090909L160.5421686746988,191.64545454545453L164.0224534501643,188.42727272727274L167.5027382256298,192.8181818181818L170.87075575027382,189.76363636363638L174.3557183278569,183.70909090909095L177.7237358525009,185.42727272727274L181.20402062796643,187.71818181818182L184.68430540343192,182.10000000000002L187.82778842643302,181.9363636363636L191.30339539978095,175.63636363636363L194.67141292442497,173.89090909090908L198.15169769989046,171.08181818181816L201.5197152245345,169.11818181818182L205,174.54545454545456L208.4802847754655,170.5909090909091L211.84830230010954,161.4L215.33326487769259,155.04545454545453L218.70128240233663,162.3818181818182L222.18156717780212,159.9818181818182L225.66185195326761,158.39999999999998L228.8053349762687,152.29090909090905L232.28094194961665,151.0909090909091L235.6489594742607,158.75454545454545L239.12924424972618,152.80909090909094L242.49726177437023,149.26363636363635L245.97754654983572,150.21818181818182L249.4578313253012,157.88181818181818L252.82584884994526,150.87272727272727L256.3108114275283,145.28181818181818L259.67882895217235,143.34545454545454L263.1591137276378,142.90909090909093L266.63939850310334,136.82727272727269L269.7828815261044,135.21818181818182L273.25848849945237,137.37272727272727L276.6265060240964,137.15454545454548L280.1067907995619,130.55454545454546L283.4748083242059,129.95454545454544L286.9550930996714,133.06363636363633L290.4353778751369,133.60909090909092L293.8033953997809,119.26363636363635L297.288357977364,113.75454545454545L300.656375502008,117.9818181818182L304.13666027747354,116.20909090909092L307.61694505293906,110.5090909090909L310.8726953267616,111.81818181818181L314.34830230010954,112.60909090909092L317.71631982475355,113.34545454545454L321.1966046002191,111.16363636363639L324.5646221248631,104.04545454545453L328.0449069003286,108.21818181818185L331.5251916757941,105.92727272727274L334.8932092004381,92.01818181818183L338.37817177802117,81.57272727272726L341.74618930266524,83.29090909090908L345.2264740781307,82.17272727272729L348.7067588535962,72.4909090909091L351.8502418765973,70.6363636363636L355.32584884994526,64.33636363636364L358.6938663745893,66.40909090909085L362.17415115005474,57.70909090909089L365.5421686746988,46.52727272727279L369.0224534501643,50.26363636363638L372.5027382256298,50.099999999999966L375.8707557502738,42.709090909090946L379.3557183278569,39.92727272727274L382.7237358525009,33.790909090909054L386.2040206279664,38.45454545454544L389.68430540343195,24.68181818181813L392.82778842643296,31.609090909090924L396.3033953997809,28.390909090909076L399.671412924425,31.090909090909122L403.15169769989046,20.100000000000023L406.5197152245345,12.081818181818221L410,13.445454545454538" data-legend="python" style="stroke: rgb(255, 127, 14); fill: none;"></path><path class="line" d="M3.480284775465498,300L6.848302300109529,300L10.333264877692589,300L13.70128240233662,300L17.181567177802116,300L20.661851953267618,300L23.80533497626871,300L27.280941949616647,300L30.648959474260682,300L34.12924424972618,300L37.49726177437021,300L40.97754654983571,300L44.45783132530121,300L47.82584884994524,300L51.3108114275283,300L54.67882895217233,300L58.15911372763782,300L61.63939850310332,300L64.78288152610442,300L68.25848849945235,300L71.62650602409639,300L75.10679079956188,300L78.47480832420591,300L81.95509309967142,300L85.43537787513691,300L88.80339539978094,300L92.288357977364,300L95.65637550200803,300L99.13666027747352,300L102.61694505293902,300L105.76042807594013,300L109.23603504928806,299.94545454545454L112.60405257393208,300L116.0843373493976,300L119.45235487404162,300L122.93263964950711,300L126.41292442497263,300L129.78094194961665,299.91818181818184L133.26590452719972,299.9727272727273L136.63392205184374,300L140.11420682730923,299.8636363636364L143.59449160277475,299.91818181818184L146.8502418765973,299.42727272727274L150.32584884994523,299.4818181818182L153.69386637458928,299.1272727272727L157.17415115005477,298.9909090909091L160.5421686746988,298.77272727272725L164.0224534501643,298.3363636363636L167.5027382256298,298.1181818181818L170.87075575027382,298.1727272727273L174.3557183278569,297.8454545454546L177.7237358525009,297.57272727272726L181.20402062796643,297.3545454545455L184.68430540343192,296.7818181818182L187.82778842643302,297.3545454545455L191.30339539978095,297.05454545454546L194.67141292442497,296.4L198.15169769989046,295.8545454545455L201.5197152245345,295.6363636363636L205,295.55454545454546L208.4802847754655,296.1L211.84830230010954,294.7909090909091L215.33326487769259,294.6272727272727L218.70128240233663,294.6L222.18156717780212,293.6181818181818L225.66185195326761,294.21818181818185L228.8053349762687,293.2090909090909L232.28094194961665,293.23636363636365L235.6489594742607,292.9909090909091L239.12924424972618,292.41818181818184L242.49726177437023,292.6909090909091L245.97754654983572,292.1454545454545L249.4578313253012,292.1181818181818L252.82584884994526,292.4727272727273L256.3108114275283,291.76363636363635L259.67882895217235,292.8272727272727L263.1591137276378,292.2L266.63939850310334,291.46363636363634L269.7828815261044,290.4818181818182L273.25848849945237,290.04545454545456L276.6265060240964,290.3181818181818L280.1067907995619,289.0090909090909L283.4748083242059,288.1636363636364L286.9550930996714,288.8454545454546L290.4353778751369,287.8636363636364L293.8033953997809,286.41818181818184L297.288357977364,286.4727272727273L300.656375502008,286.06363636363636L304.13666027747354,286.5L307.61694505293906,285.21818181818185L310.8726953267616,285.1909090909091L314.34830230010954,283.6636363636364L317.71631982475355,281.91818181818184L321.1966046002191,281.3727272727273L324.5646221248631,277.6909090909091L328.0449069003286,279.7090909090909L331.5251916757941,279.43636363636364L334.8932092004381,279.3818181818182L338.37817177802117,277.0090909090909L341.74618930266524,276.54545454545456L345.2264740781307,276.6818181818182L348.7067588535962,276.05454545454546L351.8502418765973,273.6L355.32584884994526,272.42727272727274L358.6938663745893,272.42727272727274L362.17415115005474,270.21818181818185L365.5421686746988,269.04545454545456L369.0224534501643,267.6818181818182L372.5027382256298,269.3181818181818L375.8707557502738,268.3363636363636L379.3557183278569,268.58181818181816L382.7237358525009,268.0909090909091L386.2040206279664,266.2090909090909L389.68430540343195,264.6545454545455L392.82778842643296,261.7909090909091L396.3033953997809,262.4727272727273L399.671412924425,262.55454545454546L403.15169769989046,257.7L406.5197152245345,254.15454545454546L410,256.25454545454545" data-legend="pandas" style="stroke: rgb(44, 160, 44); fill: none;"></path></g></g><g transform="translate(20, 150)"><text transform="rotate(-90)" x="-50" y="0" dy="1em" class="axis-label y-axis-label" style="text-anchor: middle; font-weight: bold;">% of Stack Overflow questions that month</text></g><g class="legend" transform="translate(530, 30)" style="font-size: 12px;"><text class="legend-title" style="font-weight: bold;">Tag</text><g class="legend-items" transform="translate(0,20)"><text y="0em" x="1em">python</text><text y="1em" x="1em">r</text><text y="2em" x="1em">pandas</text><circle cy="-0.25em" cx="0" r="0.4em" style="fill: rgb(255, 127, 14);"></circle><circle cy="0.75em" cx="0" r="0.4em" style="fill: rgb(31, 119, 180);"></circle><circle cy="1.75em" cx="0" r="0.4em" style="fill: rgb(44, 160, 44);"></circle></g><rect class="legend-box"></rect></g></svg>
            